<?xml version="1.0" encoding="UTF-8" standalone="no"?>
<!-- Created with Inkscape (http://www.inkscape.org/) -->

<svg
   xmlns:dc="http://purl.org/dc/elements/1.1/"
   xmlns:cc="http://creativecommons.org/ns#"
   xmlns:rdf="http://www.w3.org/1999/02/22-rdf-syntax-ns#"
   xmlns:svg="http://www.w3.org/2000/svg"
   xmlns="http://www.w3.org/2000/svg"
   xmlns:sodipodi="http://sodipodi.sourceforge.net/DTD/sodipodi-0.dtd"
   xmlns:inkscape="http://www.inkscape.org/namespaces/inkscape"
   id="svg3025"
   version="1.1"
   inkscape:version="0.48.5 r10040"
   width="491.84225"
   height="170.78871"
   xml:space="preserve"
   sodipodi:docname="bandit_sw2.svg"><metadata
     id="metadata3031"><rdf:RDF><cc:Work
         rdf:about=""><dc:format>image/svg+xml</dc:format><dc:type
           rdf:resource="http://purl.org/dc/dcmitype/StillImage" /><dc:title /></cc:Work></rdf:RDF></metadata><defs
     id="defs3029"><inkscape:perspective
       sodipodi:type="inkscape:persp3d"
       inkscape:vp_x="0 : 0.5 : 1"
       inkscape:vp_y="0 : 1000 : 0"
       inkscape:vp_z="1 : 0.5 : 1"
       inkscape:persp3d-origin="0.5 : 0.33333333 : 1"
       id="perspective3033" /><clipPath
       clipPathUnits="userSpaceOnUse"
       id="clipPath3043"><path
         d="M 0,0 372,0 372,169 0,169 0,0 z"
         id="path3045"
         inkscape:connector-curvature="0" /></clipPath><clipPath
       clipPathUnits="userSpaceOnUse"
       id="clipPath3153"><path
         d="m 0,0.05999756 372,0 L 372,168.912 0,168.912 0,0.05999756 z"
         id="path3155"
         inkscape:connector-curvature="0" /></clipPath></defs><sodipodi:namedview
     pagecolor="#ffffff"
     bordercolor="#666666"
     borderopacity="1"
     objecttolerance="10"
     gridtolerance="10"
     guidetolerance="10"
     inkscape:pageopacity="0"
     inkscape:pageshadow="2"
     inkscape:window-width="1304"
     inkscape:window-height="787"
     id="namedview3027"
     showgrid="false"
     inkscape:zoom="1.0449792"
     inkscape:cx="192.033"
     inkscape:cy="-46.537676"
     inkscape:window-x="35"
     inkscape:window-y="5"
     inkscape:window-maximized="0"
     inkscape:current-layer="g3035"
     fit-margin-top="10"
     fit-margin-left="10"
     fit-margin-right="10"
     fit-margin-bottom="10" /><g
     id="g3035"
     inkscape:groupmode="layer"
     inkscape:label="logo"
     transform="matrix(1.25,0,0,-1.25,-40.28345,210.07371)"><text
       xml:space="preserve"
       style="font-size:46.21007156px;font-style:normal;font-weight:normal;line-height:125%;letter-spacing:0px;word-spacing:0px;fill:#ce6111;fill-opacity:1;stroke:#000000;stroke-width:6.4000001;stroke-miterlimit:4;stroke-opacity:1;stroke-dasharray:none;font-family:Sans"
       x="151.7198"
       y="-76.220253"
       id="text3033-1"
       sodipodi:linespacing="125%"
       transform="scale(1,-1)"><tspan
         sodipodi:role="line"
         x="151.7198"
         y="-76.220253"
         style="font-style:normal;font-variant:normal;font-weight:bold;font-stretch:normal;baseline-shift:baseline;fill:#ce6111;fill-opacity:1;stroke:#000000;stroke-width:6.4000001;stroke-miterlimit:4;stroke-opacity:1;stroke-dasharray:none;font-family:Prime Minister of Canada;-inkscape-font-specification:Prime Minister of Canada Bold"
         id="tspan3037-3">SmallWorld</tspan></text>
<path
       inkscape:connector-curvature="0"
       d="M 85.37401,58.218 C 65.09,58.218 48.647,54.012 48.647,48.824 c 0,-5.189 16.443,-9.396 36.72701,-9.396 20.28499,0 36.72899,4.207 36.72899,9.396 0,5.188 -16.444,9.394 -36.72899,9.394"
       style="fill:#cccbcc;fill-opacity:1;fill-rule:nonzero;stroke:none"
       id="path3057" /><g
       id="g3037"
       transform="translate(-3.2,0)" /><path
       inkscape:connector-curvature="0"
       d="m 144.138,111.091 c -0.188,0.335 -0.952,1.375 -2.706,0.559 -0.225,-0.104 -0.414,-0.214 -0.509,-0.274 -0.748,-0.479 -0.823,-1.294 -0.801,-1.836 -0.113,-0.089 -0.224,-0.173 -0.295,-0.217 l -0.024,-0.011 c -0.262,-0.123 -0.982,-0.556 -7.18,-4.655 -0.455,-0.301 -0.759,-0.503 -0.815,-0.539 -0.112,-0.072 -0.219,-0.168 -0.323,-0.28 -0.391,0.236 -0.826,0.337 -1.333,0.155 -0.597,-0.217 -1.15,-0.445 -1.654,-0.68 -2.735,-1.27 -4.26,-2.826 -4.665,-4.75799 -0.447,-2.12501 0.645,-3.93301 1.583,-5.15601 l -1.259,0.22 0.305,-0.711 c -2.3,0.08001 -5.79,-1.092 -6.514,-1.429 -0.308,-0.14299 -0.536,-0.28299 -0.718,-0.44 -0.893,-0.77199 -0.928,-2.20599 -0.968,-4.02099 -0.011,-0.43801 -0.025,-1.05101 -0.061,-1.416 -0.192,-0.126 -0.589,-0.36201 -1.324,-0.70401 l -0.396,-0.184 c -0.561,0.521 -1.399,0.656 -3.19,0.521 l -0.544,-0.019 -1.298,8.014 c -0.051,0.407 -0.097,0.8 -0.14,1.185 5.321,0.856 9.679,3.384 10.668,4.583 0.404,0.486 0.261,1.448 -0.054,2.436 0.645,0.024 1.192,-0.106 2.225,0 1.821,0.184 4.647,3.534 4.647,3.534 0.994,-0.389 1.627,0.396 2.856,1.387 1.227,0.989 2.912,3.889 3.189,4.882 0.274,0.99 -0.979,3.079 -1.448,3.521 -0.467,0.441 -1.977,0.337 -1.977,0.337 0,0 0.144,0.726 0.116,1.195 -0.026,0.469 -1.09,2.306 -1.759,2.539 -0.669,0.232 -2.272,0.13533 -2.272,0.13533 0,0 0.86642,1.08201 1.71801,2.28818 0.85159,1.20617 1.68835,2.53651 1.62902,3.03317 -0.59433,1.06 -3.17567,2.54368 -4.27434,2.01935 -1.027,0.019 -5.19502,-7.23303 -5.19502,-7.23303 0,0 -1.40667,0.49 -1.87167,0.342 -0.465,-0.149 -2.658,-2.609 -3.086,-3.566 -0.427,-0.957 0.567,-2.844 0.422,-3.989 -0.099,-0.769 -0.673,-1.304 -1.042,-1.578 -0.7,0.131 -1.42,0.128 -1.843,-0.141 -1.024,-0.653 -2.214,-1.649 -3.101,-2.499 0.042,0.373 0.075,0.619 0.075,0.619 0,0 -1.089,0.442 -2.152,-0.309 -1.869,-1.322 -4.461,-4.261 -6.598,-4.951 -2.385,-0.77 -5.774,-0.057 -7.541,0.422 0.21,0.959 0.321,0.973 0.41301,2.16 0.32698,0.035 0.91999,0.121 1.70099,0.277 10.546,0.851 16.676,7.453 16.676,7.453 l 0.537,4.269 c -3.426,2.993 -11.057,4.665 -17.822,5.589 -1.936,2.769 -5.815,6.879 -11.53799,6.249 -5.902,-0.651 -10.30901,-3.944 -12.46301,-5.908 -17.157,-1.776 -19.345,-5.503 -19.345,-5.503 l 0.133,-4.269 c 2.281,-4.126 7.378,-5.976 7.378,-5.976 l 0.873,-0.049 c 0.623,-0.442 1.121,-0.772 1.312,-0.838 -0.948,-1.03 -1.118,-1.598 -1.779,-2.77 -0.438,-0.775 -0.919,-1.347 -1.397,-1.947 -0.261,0.055 -0.578,0.083 -0.967,0.036 -1.249,-0.148 -8.513,-2.587 -9.385,-10.315 -0.231,-3.776 2.34,-10.867 11.34,-9.64199 L 58.316,81.995 c -2.424,-0.682 -5.985,-1.96 -6.512,-2.236 -0.255,-0.13199 -0.512,-0.47999 -0.749,-0.929 -2.385,1.333 -5.435,3.905 -6.057,4.21 -0.746,0.37 -2.023,-0.56299 -2.945,-1.418 -0.92,-0.85599 -0.974,-3.295 -0.699,-4.04999 0.274,-0.75801 1.765,-1.76801 1.93,-1.887 C 43.449,75.562 43.423,75.507 42.608,75.137 41.792,74.764 37.503,73.193 37.256,72.75 36.405,71.21101 38.148,69.15701 38.826,68.18501 39.505,67.21 41.251,67.856 41.251,67.856 c 0,0 -0.114,-1.834 -0.029,-2.52099 0.083,-0.68701 1.49,-1.276 1.49,-1.276 0,0 0.251,-2.33301 0.753,-3.14701 0.503,-0.811 2.624,-0.975 4.077,-0.34 1.451,0.636 3.689,2.843 4.076,3.647 0.388,0.808 0.101,1.469 0.252,1.657 0.064,0.082 0.623,0.48801 1.244,0.935 0.578,-1.106 1.155,-1.916 1.65,-2.038 0.742,-0.181 2.386,0.379 4.042,1.087 0.191,-6.849 0.454,-12.33 0.839,-12.679 0.288,-0.264 1.58901,-0.252 3.48,-0.102 -0.374,-1.178 -0.77899,-2.831 -0.648,-4.165 0.233,-2.358 9.49201,-5.406 14.718,-1.844 2.53701,1.73 4.198,5.967 3.918,7.78 0.348,0.017 0.69101,0.026 1.017,0.034 1.86401,0.038 4.32,-0.376 6.974,-0.999 0.15701,-1.433 0.89501,-5.537 4.23801,-7.015 3.75099,-1.655 10.22199,-1.778 12.03299,2.422 1.419,-0.334 2.35,-0.428 2.537,-0.131 1.089,1.736 3.803,13.035 4.065,23.756 l 0.021,0 c 3.621,0.076 4.066,0.27901 4.356,0.414 0,0 1.57,0.537 1.995,0.21401 0.243,-0.18501 0.432,-0.32801 0.654,-0.43901 0.403,-0.204 0.961,-0.483 3.834,0.613 l 2.664,1.017 -0.563,0.45 c 1.027,-0.095 1.887,0.212 2.296,0.403 0.159,0.072 0.247,0.12401 0.247,0.12401 l 0.163,0.09799 c 1.623,-0.695 4.355,-0.081 5.271,0.34301 0.448,0.211 0.786,0.46699 1.027,0.78499 0.852,1.11701 0.464,2.95401 -0.063,4.39801 0.092,0.056 0.191,0.10399 0.269,0.16899 1.099,0.93399 1.241,2.813 1.032,4.139 -0.094,0.61 -0.278,1.117 -0.52,1.548 0.128,0.07301 0.259,0.14101 0.367,0.233 1.098,0.93501 1.241,2.814 1.031,4.142 -0.18,1.12801 -0.627,1.958 -1.264,2.43101 0.36,0.25899 0.656,0.5 0.825,0.686 0.706,0.78399 0.497,1.81199 0.207,2.58399 l 0.029,0.01301 c 0.064,0.02999 6.669,3.51599 7.24,4.47399 0.593,0.999 0.091,2.192 -0.292,2.794 1.289,0.801 2.257,1.43 2.44,1.622 0.963,1.025 0.404,2.285 -1.105,4.919"
       style="fill:#231f20;fill-opacity:1;fill-rule:nonzero;stroke:none"
       id="path3059"
       sodipodi:nodetypes="cccccccsccccccccccccccccccccccccccccsccccccccccccccccccccccccccccccccccccccccccccccccccccccccccccccccccccccccccccccccccccccc" /><path
       inkscape:connector-curvature="0"
       d="m 92.38501,99.84 c 0.03699,-0.066 0.07699,-0.121 0.113,-0.18799 0,0 -0.03701,0.069 -0.113,0.18799"
       style="fill:#ffffff;fill-opacity:1;fill-rule:nonzero;stroke:none"
       id="path3061" /><path
       inkscape:connector-curvature="0"
       d="m 109.371,78.70901 c -0.124,1.28999 -0.256,2.52099 -0.386,3.71899 -1.418,-2.112 -4.506,-6.124 -5.067,-6.968 -0.722,-1.085 -1.734,-2.31799 -2.455,-2.31799 -0.724,0 -4.192,5.722 -5.347,6.96099 -1.15899,1.238 -2.31299,3.247 -2.60299,2.474 C 93.223,81.802 90.479,77.164 89.46601,76.235 88.45601,75.30701 87.3,74.068 86.723,74.068 c -0.579,0 -2.023,0.307 -3.468,2.32 -1.44501,2.012 -2.747,4.64301 -3.322,4.332 -0.58,-0.31 -2.169,-4.17499 -3.036,-5.723 -0.866,-1.54999 -2.02299,-3.561 -2.892,-3.561 -0.865,0 -1.875,2.477 -3.322,3.097 -1.445,0.618 -4.19,5.103 -4.76799,4.951 C 65.45,79.36 61.717,74.37901 60.279,72.437 c 0.067,-3.012 0.139,-5.604 0.213,-7.189 0.266,-5.669 0.612,-9.901 1.049,-10.055 0.439,-0.154 14.753,2.472 22.047,1.547 7.291,-0.926 21.259,-5.567 22.427,-5.261 1.167,0.309 4.521,15.16201 3.356,27.23001"
       style="fill:#ce6111;fill-opacity:1;fill-rule:nonzero;stroke:none"
       id="path3079" /><path
       inkscape:connector-curvature="0"
       d="M 66.493,82.26601 C 66.92601,81.956 72.70601,74.997 73.574,74.997 c 0.866,0 4.335,8.19801 5.92501,8.663 1.58799,0.46501 1.29899,-0.46499 1.87699,-0.928 0.57901,-0.46599 3.612,-5.261 4.335,-6.032 0.722,-0.774 2.31201,0.464 2.74501,1.85601 0.432,1.392 4.47899,6.808 5.057,7.58099 0.578,0.773 1.15599,-0.311 1.733,-0.61899 C 95.825,85.20801 100.45,77.316 101.317,76.7 c 0.867,-0.621 1.01,0.464 1.3,1.08101 0.288,0.61899 4.191,6.344 5.78,8.973 0.025,0.04399 0.047,0.07699 0.069,0.11499 -0.928,7.60601 -1.76,12.903 -1.43,15.821 0.438,3.869 -1.019,1.083 -2.189,0.155 -1.076,-0.856 -4.863,-3.675 -12.313,-1.315 0.945,-1.157 1.82401,-2.48 2.43,-3.76199 C 95.478,96.679 93.59601,96.68 93.254,97.22201 93.117,97.439 92.23999,98.089 90.889,98.802 90.419,98.023 89.919,97.397 89.42801,96.90401 88.409,93.27 84.253,92.08401 84.01,91.57101 c -0.27499,-0.583 0,-3.25 -0.13699,-3.835 C 83.73501,87.15301 80.57,86.13 80.432,87.3 c -0.137,1.166 -0.413,4.418 -0.413,4.418 -3.52199,1.029 -5.406,3.78401 -6.307,5.64 -0.135,0.11901 -0.264,0.23901 -0.392,0.36 -0.11599,-0.36 -0.47699,-1.45099 -0.744,-1.77099 C 72.258,95.562 69.683,94.493 67.987,92.867 c -0.803,-0.76999 -4.249,-0.082 -5.48,-0.193 -0.64999,-0.05899 -1.618,-0.29499 -2.469,-0.494 -0.009,-3.659 0.058,-9.908 0.16,-15.628 1.351,2.109 3.968,5.27201 4.418,5.872 0.57701,0.77101 1.445,0.153 1.877,-0.15799"
       style="fill:#21b5b0;fill-opacity:1;fill-rule:nonzero;stroke:none"
       id="path3081" /><path
       inkscape:connector-curvature="0"
       d="m 68.28701,47.337 c 0,0 -8.07101,4.324 7.349,6.629 L 64.684,52.958 c 0,0 -2.162,-5.189 3.60301,-5.621"
       style="fill:#696767;fill-opacity:1;fill-rule:nonzero;stroke:none"
       id="path3083" /><path
       inkscape:connector-curvature="0"
       d="m 97.541,46.905 c -9.65499,5.909 5.621,2.881 5.621,2.881 l -11.81699,2.74 C 90.625,48.059 97.541,46.905 97.541,46.905"
       style="fill:#696767;fill-opacity:1;fill-rule:nonzero;stroke:none"
       id="path3085" /><path
       inkscape:connector-curvature="0"
       d="m 49.554,66.957 c -0.888,-1.516 -2.281,-2.75799 -3.632,-3.312 -1.351,-0.56 -2.323,0.139 -2.323,0.139 -0.056,-2.572 1.657,-2.789 3.504,-2.196 1.845,0.592 3.615,2.948 3.608,3.662 -0.008,0.715 -1.157,1.707 -1.157,1.707"
       style="fill:#cba569;fill-opacity:1;fill-rule:nonzero;stroke:none"
       id="path3087" /><path
       inkscape:connector-curvature="0"
       d="m 45.366,64.509 c 1.579,0.197 3.666,2.74501 4.13,3.905 0.464,1.15901 -0.835,2.263 -1.552,2.25 -0.813,-0.02099 -2.128,-1.347 -2.128,-1.347 -0.004,-0.654 -0.7,-1.458 -0.7,-1.458 0,0 -0.274,1.169 -0.374,1.349 -0.097,0.18501 -0.614,0.137 -1.468,-0.288 -0.852,-0.425 -1.111,-2.257 -0.99,-2.78 0.118,-0.524 1.502,-1.829 3.082,-1.631"
       style="fill:#cba569;fill-opacity:1;fill-rule:nonzero;stroke:none"
       id="path3089" /><path
       inkscape:connector-curvature="0"
       d="m 51.713,77.039 c -1.101,0.709 -3.777,1.955 -6.831,4.51 -0.791,0.66401 -3.423,-2.274 -2.15,-4.01999 1.271,-1.74901 4.705,-1.316 5.628,-2.40401 0.922,-1.086 0.075,-2.156 0.075,-2.156 0,0 -0.568,1.362 -1.364,1.558 0,0 -3.428,0.036 -4.051,-0.336 C 42.396,73.82301 38.979,72.485 38.581,72.34901 38.18,72.209 38.688,68.636 40.858,68.76 c 1.499,0.088 3.825,1.989 5.847,2.68801 -0.244,0.71299 0.243,1.346 0.243,1.346 0.159,-0.512 0.599,-0.88501 0.919,-1.10101 0.463,0.021 0.894,-0.054 1.271,-0.298 2.204,-1.427 0.921,-3.828 0.921,-3.828 l 0.7,-0.851 c 0,0 2.089,1.346 2.669,1.86 0.652,0.576 1.076,2.241 1.09,4.12201 0.012,1.87899 -1.869,3.734 -2.805,4.34099"
       style="fill:#cba569;fill-opacity:1;fill-rule:nonzero;stroke:none"
       id="path3091" /><path
       inkscape:connector-curvature="0"
       d="m 55.158,74.68999 c 0.005,-0.01099 0.013,-0.01898 0.018,-0.03199 0.629,-1.522 1.198,-4.982 0.539,-7.64199 -0.077,-0.31601 1.393,0.263 3.034,1.016 -0.033,1.33699 -0.064,2.706 -0.093,4.08699 l -0.27,7.82 c -1.97,-0.612 -4.726,-1.73999 -5.281,-2.079 1.049,-0.654 1.692,-1.838 2.053,-3.17001"
       style="fill:#ffffff;fill-opacity:1;fill-rule:nonzero;stroke:none"
       id="path3093" /><path
       inkscape:connector-curvature="0"
       d="m 125.04,110.284 c -0.246,-0.57 -0.633,-1.796 -0.129,-2.455 0.505,-0.66 1.666,-1.422 2.336,-1.235 0.673,0.187 4.238,3.763 4.396,4.78 0.165,1.016 -1.836,2.833 -2.571,2.534 -0.734,-0.301 -3.518,-2.433 -4.032,-3.624"
       style="fill:#cba569;fill-opacity:1;fill-rule:nonzero;stroke:none"
       id="path3095" /><path
       inkscape:connector-curvature="0"
       d="m 126.632,113.719 c 0,0 1.089,0.784 1.43,1.508 0.343,0.724 -1.476,2.98 -2.414,2.432 -0.946,-0.548 -1.462,-1.249 -1.462,-1.249 0,0 2.428,-1.381 2.446,-2.691"
       style="fill:#cba569;fill-opacity:1;fill-rule:nonzero;stroke:none"
       id="path3097" /><path
       inkscape:connector-curvature="0"
       d="m 124.86905,125.52242 c -0.989,-0.58 -4.63105,-6.59242 -4.69605,-6.74442 -0.036,-0.0765 2.28829,-2.20355 3.11161,-1.6858 0.43831,0.27564 1.71245,1.24745 1.19408,1.54625 -1.23998,0.71476 0.11034,0.39119 0.4509,0.60994 0.34056,0.21875 0.77185,0.97981 1.13885,1.4236 1.46801,1.77518 1.98182,2.71763 1.5663,3.50686 -0.41552,0.78924 -2.23886,1.32957 -2.76569,1.34357 z"
       style="fill:#cba569;fill-opacity:1;fill-rule:nonzero;stroke:none"
       id="path3099"
       sodipodi:nodetypes="ccssscsc" /><path
       inkscape:connector-curvature="0"
       d="m 108.898,99.553 c 0.161,-1.792 0.36,-3.20599 0.36,-3.20599 3.499,0 7.367,2.499 7.95,2.807 0.585,0.30999 -2.479,2.01199 -3.794,3.55899 -1.311,1.547 -0.872,5.57 -0.872,5.57 -1.461,-0.464 -3.721,-2.808 -3.721,-2.808 -0.023,-0.146 -0.038,-0.308 -0.052,-0.469 0.005,-0.102 0.007,-0.205 0.016,-0.305 0.064,-0.672 -0.011,-2.403 0.113,-5.148"
       style="fill:#ffffff;fill-opacity:1;fill-rule:nonzero;stroke:none"
       id="path3101" /><path
       inkscape:connector-curvature="0"
       d="m 118.219,102.981 c 1.995,1.243 2.246,-0.598 3.409,-0.351 1.16,0.246 4.532,2.934 3.925,3.07 -0.61,0.136 -1.851,1.087 -1.91,1.605 -0.056,0.519 0.05,1.844 0.05,1.844 l -1.644,0.535 c -0.961,-1.64 -2.156,-2.05 -2.156,-2.05 0.648,0.867 0.456,3.103 0.456,3.103 -1.756,1.571 -1.527,3.543 -1.527,3.543 1.27,-1.633 3.818,-3.21 4.887,-3.448 1.063,-0.236 2.239,1.694 1.671,2.832 -0.57,1.139 -5.483,4.423 -6.342,4.109 -0.857,-0.317 -2.761,-1.915 -2.952,-2.883 -0.194,-0.97 0.56,-2.889 0.431,-3.536 -0.127,-0.647 -0.723,-1.451 -2.224,-2.775 0,0 -0.546,-2.664 -0.28,-3.734 0.263,-1.07 2.213,-3.105 4.206,-1.864"
       style="fill:#cba569;fill-opacity:1;fill-rule:nonzero;stroke:none"
       id="path3103" /><path
       inkscape:connector-curvature="0"
       d="m 127.086,82.161 c 0,0 -0.705,0.796 -0.893,1.569 -0.186,0.768 0.585,2.95 1.398,3.29 0.244,0.10501 0.81,0.271 1.503,0.44 -0.284,0.45701 -1.446,2.344 -1.017,3.469 0.027,0.067 0.072,0.14301 0.125,0.22301 -0.48,0.17699 -1.063,0.297 -1.453,0.365 0.483,-1.125 -0.319,-4.68501 -1.574,-5.489 -1.317,-0.84201 -2.028,-0.566 -2.028,-0.566 0,0 -0.376,-4.19901 -0.412,-5.83801 -0.037,-1.634 1.469,-2.58099 1.469,-2.58099 1.219,-0.65701 2.547,0.10599 2.547,0.10599 0,0 -0.766,1.197 -0.744,1.746 0.025,0.548 -0.595,2.375 1.079,3.266"
       style="fill:#b3b5b7;fill-opacity:1;fill-rule:nonzero;stroke:none"
       id="path3105" /><path
       inkscape:connector-curvature="0"
       d="m 133.761,92.77 c -0.959,0.363 -3.044,-0.58899 -3.5,-0.973 -0.454,-0.377 -1.079,-1.93499 -0.033,-2.595 0.511,-0.32299 2.991,-1.22799 3.84,-0.50599 0.846,0.721 0.654,3.71299 -0.307,4.07399"
       style="fill:#cba569;fill-opacity:1;fill-rule:nonzero;stroke:none"
       id="path3107" /><path
       inkscape:connector-curvature="0"
       d="m 132.885,86.854 c -0.962,0.363 -4.555,-0.691 -5.009,-1.07 -0.454,-0.38099 -1.079,-1.93599 -0.031,-2.59899 0.507,-0.322 4.496,-1.12501 5.346,-0.406 0.847,0.71999 0.654,3.71199 -0.306,4.07499"
       style="fill:#cba569;fill-opacity:1;fill-rule:nonzero;stroke:none"
       id="path3109" /><path
       inkscape:connector-curvature="0"
       d="m 127.591,80.978 c -0.871,-0.384 -0.362,-2.901 0.428,-3.554 0.789,-0.648 4.2,-0.161 4.726,0.534 0.529,0.694 -0.388,3.04401 -0.388,3.04401 -2.043,-0.24101 -3.891,0.35499 -4.766,-0.02401"
       style="fill:#cba569;fill-opacity:1;fill-rule:nonzero;stroke:none"
       id="path3111" /><path
       inkscape:connector-curvature="0"
       d="m 120.912,76.993 0.379,3.46901 -1.466,1.11899 c 0,0 1.034,0.36601 1.439,0.621 0.408,0.263 0.48,3.539 0.48,3.539 l -0.632,1.35601 c 0,0 2.356,-0.25501 3.188,-0.01601 0.831,0.24101 2.024,3.496 0.864,4.07301 -1.16,0.57999 -6.314,-0.81401 -6.961,-1.376 -0.648,-0.56001 -0.194,-4.52201 -0.678,-5.12701 -0.338,-0.421 -1.411,-0.95499 -2.032,-1.24499 0.711,-2.29501 1.449,-5.61 1.52,-7.31601 1.37,-0.39499 2.289,-1.333 2.645,-1.513 0.386,-0.193 2.659,0.673 2.659,0.673 0,0 -1.016,0.817 -1.405,1.743"
       style="fill:#cba569;fill-opacity:1;fill-rule:nonzero;stroke:none"
       id="path3113" /><path
       inkscape:connector-curvature="0"
       d="m 111.998,74.87801 c 1.408,0.04599 3.469,0.14499 3.712,0.29699 0.404,0.262 -1.862,7.916 -2.22,8.305 -0.099,0.10601 -1.237,0.13301 -2.482,0.127 l 0.881,-5.43799 c 0.069,-1.07701 0.104,-2.17701 0.109,-3.291"
       style="fill:#ffffff;fill-opacity:1;fill-rule:nonzero;stroke:none"
       id="path3115" /><path
       inkscape:connector-curvature="0"
       d="m 126.509,94.75101 c -3.748,5.18898 3.891,7.49399 3.891,7.49399 l 0.576,-0.432 c -6.629,-2.44999 -4.035,-5.332 -4.035,-5.332 l 5.62,3.45899 0.289,-0.86499 -6.341,-4.32399 z m 1.887,0.43699 c -0.239,0.545 3.937,2.902 4.999,3.488 -0.297,0.51901 -0.622,1.04601 -0.945,1.54 -1.252,-0.746 -4.557,-2.691 -4.977,-2.66999 -0.516,0.025 -0.739,0.41399 -0.323,0.859 0.348,0.373 3.478,2.33599 4.5,2.97399 -0.491,0.669 -0.886,1.115 -1.006,1.072 -8.529,-3.12101 -4.7,-7.231 -3.318,-8.925 1.385,-1.695 6.616,1.653 7.182,2.28301 0.147,0.163 -0.021,0.71299 -0.352,1.42399 -1.178,-0.561 -5.525,-2.587 -5.76,-2.045"
       style="fill:#b3b5b7;fill-opacity:1;fill-rule:nonzero;stroke:none"
       id="path3117" /><path
       inkscape:connector-curvature="0"
       d="m 141.258,103.865 c -0.467,-0.21 -6.145,-3.49 -6.663,-3.911 -0.516,-0.419 0.317,-1.292 0.6,-1.199 0.282,0.09 6.433,3.582 6.601,3.87 0.171,0.287 -0.329,1.334 -0.538,1.24"
       style="fill:#b3b5b7;fill-opacity:1;fill-rule:nonzero;stroke:none"
       id="path3119" /><path
       inkscape:connector-curvature="0"
       d="m 142.825,110.247 c -0.148,0.262 -0.921,-0.145 -1.105,-0.263 -0.012,-0.008 -0.018,-0.028 -0.027,-0.041 l 1.101,-1.789 -9.656,-6.197 -0.55,0.551 c 0.112,-0.478 0.818,-1.565 1.03,-1.576 0.26,-0.012 10.328,6.166 10.538,6.389 0.208,0.222 -1.179,2.665 -1.331,2.926"
       style="fill:#b3b5b7;fill-opacity:1;fill-rule:nonzero;stroke:none"
       id="path3121" /><path
       inkscape:connector-curvature="0"
       d="m 142.794,108.154 -1.101,1.789 -0.052,0.085 0.026,-0.134 0.263,-1.308 -9.352,-6.041 -0.017,-0.011 0.027,-0.026 0.55,-0.551 9.656,6.197"
       style="fill:#ffffff;fill-opacity:1;fill-rule:nonzero;stroke:none"
       id="path3123" /><path
       inkscape:connector-curvature="0"
       d="m 132.561,99.93999 -5.62,-3.45899 c 0,0 -2.594,2.88201 4.035,5.332 l -0.576,0.432 c 0,0 -7.639,-2.30501 -3.891,-7.49399 l 6.341,4.32399 -0.289,0.86499"
       style="fill:#ffffff;fill-opacity:1;fill-rule:nonzero;stroke:none"
       id="path3125" /><path
       inkscape:connector-curvature="0"
       d="m 79.81601,103.542 -0.86501,0.721 c 0,0 -2.738,-0.288 -4.035,-2.161 l 0.28801,-0.577 c 0,0 1.585,2.017 4.612,2.017"
       style="fill:#ffffff;fill-opacity:1;fill-rule:nonzero;stroke:none"
       id="path3127" /><path
       inkscape:connector-curvature="0"
       d="m 92.38501,99.84 c -3.026,5.403 -7.52501,4.711 -7.52501,4.711 l -0.289,-0.864 c 4.91201,0.251 7.292,-3.017 7.81401,-3.847"
       style="fill:#ffffff;fill-opacity:1;fill-rule:nonzero;stroke:none"
       id="path3129" /><path
       inkscape:connector-curvature="0"
       d="m 79.739,99.219 c 1.88201,0.907 3.59301,0.18 4.10501,0 0.513,-0.183 -1.71,-2.722 -2.223,-2.722 -0.514,0 -2.444,2.45001 -1.88201,2.722 z m -1.738,-2.818 c 0.49401,-0.25799 0.781,-0.639 1.13,-1.029 0.333,-0.388 0.67001,-0.79201 0.938,-1.027 0.17801,-0.16099 0.314,-0.22099 0.31901,-0.215 0.15899,-0.03199 0.52199,-0.05799 0.929,-0.05699 0.96,-0.004 2.29499,0.11999 2.677,0.21099 l 0,10e-4 c 0.017,0.009 0.05199,0.035 0.09499,0.07601 0.08801,0.07999 0.208,0.21699 0.34001,0.38199 0.264,0.333 0.55699,0.768 0.87799,1.15001 0.21901,0.25199 0.43701,0.49699 0.78601,0.67499 0.24499,0.11601 0.583,0.236 1.08799,0.54401 0.493,0.305 1.101,0.77399 1.715,1.52299 0.19901,0.24401 0.399,0.53 0.596,0.83801 -1.95599,0.86199 -4.489,1.65499 -7.187,1.74099 -2.843,0.092 -5.203,-0.595 -7.00299,-1.464 -0.17101,-0.37099 -0.4,-0.766 -0.681,-1.106 0.892,-0.8 1.99099,-1.566 3.37999,-2.243"
       style="fill:#cba569;fill-opacity:1;fill-rule:nonzero;stroke:none"
       id="path3131" /><path
       inkscape:connector-curvature="0"
       d="m 72.507,105.345 c -0.035,-0.122 -0.076,-0.234 -0.13,-0.319 0,0 1.00801,-1.102 1.90001,-2.211 1.538,1.259 3.33999,2.465 5.11999,3.117 0,0 1.025,-1.815 2.22401,-1.995 1.19799,-0.183 2.736,1.632 2.736,1.632 0,0 2.737,10e-4 4.44899,-0.724 0.615,-0.263 1.39901,-0.859 2.21601,-1.655 0.16799,0.662 0.30399,1.403 0.41399,2.21 -1.19099,0.745 -3.325,2.172 -5.53899,2.095 -1.94901,-0.067 -1.36801,2.974 -4.10501,2.974 -1.72,0 -2.298,-2.562 -3.593,-2.723 -2.74399,-0.338 -4.543,-1.542 -5.692,-2.401"
       style="fill:#cba569;fill-opacity:1;fill-rule:nonzero;stroke:none"
       id="path3133" /><path
       inkscape:connector-curvature="0"
       d="m 81.545,104.696 c 0,0 -1.01,1.585 -0.57699,4.755 0,0 -2.44901,-3.746 0.57699,-4.755"
       style="fill:#ffffff;fill-opacity:1;fill-rule:nonzero;stroke:none"
       id="path3135" /><path
       inkscape:connector-curvature="0"
       d="m 63.573,93.87801 c 0.79901,-0.113 3.575,-0.01001 4.834,0.70198 3.052,1.72602 3.569,3.03202 3.569,3.03202 0,0 -3.02199,0.72 -3.303,2.77199 l -3.014,-3.448 -0.058,2.738 c 0,0 -2.457,-1.22999 -2.734,-2.33799 0,0 0.745,3.34999 2.07501,3.87399 1.32999,0.524 3.279,0.962 3.64099,0.624 0.367,-0.341 1.975,-2.58099 3.175,-2.75199 1.19701,-0.17101 2.289,0.96299 2.36,1.52899 0.072,0.565 -2.435,3.22 -2.435,3.22 0,0 -2.536,-0.334 -4.151,-0.247 -1.614,0.087 -1.875,-0.613 -1.875,-0.613 l -1.398,0.421 c 0,0 0.55601,0.621 1.43401,0.932 1.14099,0.406 4.306,0.169 4.999,0.458 0.63799,0.265 1.24499,3.181 -0.599,3.587 -1.844,0.408 -6.527,-0.215 -7.48801,-1.372 -0.957,-1.154 -4.017,-6.032 -4.807,-6.925 -0.79,-0.892 -0.896,-1.73999 -0.723,-2.483 0.176,-0.74299 1.964,-3.729 2.931,-3.57901 0.968,0.14801 2.77001,-0.01799 3.567,-0.13198"
       style="fill:#cba569;fill-opacity:1;fill-rule:nonzero;stroke:none"
       id="path3137" /><path
       inkscape:connector-curvature="0"
       d="m 58.375,88.31 -2.886,1.102 2.855,0.75501 c -0.013,0.64399 -0.024,1.226 -0.036,1.74099 -0.632,0.243 -3.707,4.23001 -2.837,6.917 0.219,0.671 0.462,1.217 0.721,1.689 C 51.897,98.84 49.034,96.408 48.748,92.75999 48.706,92.23701 48.672,91.797 48.642,91.414 c -0.363,-5.083 5.686,-7.824 9.798,-6.999 -0.022,1.4 -0.043,2.71401 -0.065,3.895"
       style="fill:#ffffff;fill-opacity:1;fill-rule:nonzero;stroke:none"
       id="path3139" /><path
       inkscape:connector-curvature="0"
       d="M 81.69301,118.954 C 63.227,118.436 56.532,115.974 54.625,113.808 c -0.461,-0.523 -0.646,-1.031 -0.646,-1.487 2.173,-1.176 4.889,-3.05 7.33,-4.082 2.442,1.653 8.013,1.43 9.819,0.961 1.444,0.806 3.636,2.461 10.834,2.528 8.554,0.082 10.955,-3.387 11.22701,-4.317 0.18899,-0.646 11.01699,1.708 15.44399,5.439 0.224,0.188 0.437,0.38 0.626,0.576 0,0 -2.916,6.219 -27.56599,5.528"
       style="fill:#edcb04;fill-opacity:1;fill-rule:nonzero;stroke:none"
       id="path3141" /><path
       inkscape:connector-curvature="0"
       d="m 91.13801,124.452 c -0.95101,1.322 -3.394,4.004 -7.61001,4.088 -3.813,0.075 -7.051,-2.326 -8.733,-3.868 3.09001,0.633 9.04801,1.342 16.34301,-0.22"
       style="fill:#f7e78b;fill-opacity:1;fill-rule:nonzero;stroke:none"
       id="path3143" /><path
       inkscape:connector-curvature="0"
       d="m 82.461,121.657 c 3.90801,-0.132 8.282,-0.431 13.207,-0.965 0,0 -34.909,2.729 -42.763,-4.723 0,-0.077 0,-0.16 0,-0.237 2.768,1.642 8.754,3.506 21.698,4.266 26.281,1.544 33.339,-3.636 34.908,-5.297 l 0.272,1.787 c 0,0 -1.973,2.939 -14.249,4.385 -2.784,0.329 -6.09499,0.581 -10.03799,0.704 -1.027,0.052 -2.03501,0.073 -3.03501,0.08"
       style="fill:#f7e78b;fill-opacity:1;fill-rule:nonzero;stroke:none"
       id="path3145" /><path
       inkscape:connector-curvature="0"
       d="m 95.668,120.692 c -4.925,0.534 -9.29899,0.833 -13.207,0.965 -2.514,0.085 -4.83,0.099 -6.958,0.055 -17.801,-0.374 -22.637,-4.766 -22.637,-4.766 l 0,-1.01 c 0.012,0.012 0.027,0.021 0.039,0.033 7.854,7.452 42.763,4.723 42.763,4.723"
       style="fill:#ffffff;fill-opacity:1;fill-rule:nonzero;stroke:none"
       id="path3147" /><g
       id="g3838"
       transform="matrix(1.1411044,0,0,1.1411044,-148.60059,70.952771)"><path
         transform="matrix(1.0064516,0,0,-1.0064516,-58.084199,192.46125)"
         d="m 311.01099,128.47324 c 0,8.19194 -6.64088,14.83283 -14.83283,14.83283 -8.19194,0 -14.83283,-6.64089 -14.83283,-14.83283 0,-8.19195 6.64089,-14.83284 14.83283,-14.83284 8.19195,0 14.83283,6.64089 14.83283,14.83284 z"
         sodipodi:ry="14.832831"
         sodipodi:rx="14.832831"
         sodipodi:cy="128.47324"
         sodipodi:cx="296.17816"
         id="path3046"
         style="fill:#322786;fill-opacity:1;stroke:none"
         sodipodi:type="arc" /><path
         inkscape:connector-curvature="0"
         id="path3820"
         d="m 230.62661,74.642641 c 1.09684,-0.219368 0.666,-0.04592 1.33974,-0.382784 0.12759,-0.06384 0.26866,-0.1058 0.38279,-0.191392 0.28871,-0.216536 0.47684,-0.549032 0.76556,-0.765568 0.7735,-0.58012 0.0909,-0.03032 0.57417,-0.191392 1.38633,-0.462104 -0.30175,0.0552 0.57418,-0.382784 0.057,-0.02856 0.13433,0.02856 0.19139,0 0.17518,-0.08759 0.33616,-0.434304 0.38278,-0.574168 0.0202,-0.06056 -0.0286,-0.134336 0,-0.191392 0.0807,-0.1614 0.30208,-0.221392 0.38278,-0.382784 0.0286,-0.05704 0,-0.127592 0,-0.191392 0,-0.06384 0,-0.127592 0,-0.191392 0,-0.318984 0,-0.637968 0,-0.95696 0,-0.07296 0.0186,-0.938376 0,-0.956952 -0.10087,-0.100872 -0.2819,-0.09052 -0.38278,-0.191392 -0.0451,-0.04512 0.0202,-0.130872 0,-0.191392 -0.0638,-0.127592 -0.1276,-0.255192 -0.19139,-0.382784 0,-0.127592 0.0403,-0.261736 0,-0.382784 -0.0286,-0.08559 -0.15105,-0.110688 -0.19139,-0.191392 -0.0252,-0.05032 0,-0.66548 0,-0.76556 0,-0.06384 0,-0.1276 0,-0.191392 0,-0.06384 -0.0354,-0.138312 0,-0.191392 0.13878,-0.208184 0.49402,-0.519872 0.76556,-0.574176 0.43152,-0.0863 0.61565,0.14992 0.95696,-0.191392 0.0451,-0.04512 -0.0451,-0.14628 0,-0.191392 0.25519,-0.255184 0.18366,0.406008 0.38278,-0.191392 0.20903,-0.627072 -0.45428,-0.723488 -0.76556,-0.956952 -0.82783,-0.827824 0.0507,-0.03 -0.76556,-0.574176 -0.075,-0.05008 -0.1107,-0.15104 -0.1914,-0.191392 -0.057,-0.02856 -0.1276,0 -0.19139,0 -0.1276,-0.127592 -0.23265,-0.282688 -0.38278,-0.382784 -0.053,-0.03536 -0.14628,0.04512 -0.19139,0 -0.0451,-0.04512 0.0286,-0.134328 0,-0.191392 -0.0403,-0.0807 -0.15104,-0.110688 -0.1914,-0.191392 -0.0286,-0.05704 0.0451,-0.14628 0,-0.191392 -0.0451,-0.04512 -0.13432,0.02856 -0.19139,0 -0.0807,-0.04032 -0.1058,-0.162856 -0.19139,-0.191392 -0.10887,-0.03632 -0.7767,0 -0.95695,0 -0.31899,0 -0.63798,0 -0.95696,0 -0.0638,0 -0.12759,0 -0.19139,0 -0.0638,0 -0.13433,-0.02856 -0.1914,0 -0.0807,0.04032 -0.11069,0.151048 -0.19139,0.191392 -0.057,0.02856 -0.13433,-0.02856 -0.19139,0 -0.29313,0.146568 -0.14967,0.341064 -0.38278,0.574176 -0.0451,0.04512 -0.1276,0 -0.1914,0 -0.0638,0.06376 -0.14134,0.11632 -0.19138,0.191392 -0.0791,0.118696 -0.14628,0.247448 -0.19139,0.382784 -0.0202,0.06048 0.0451,0.14628 0,0.191392 -0.0451,0.04512 -0.14628,-0.04512 -0.19139,0 -0.49692,0.496904 0.17348,0.382784 -0.57418,0.382784 -0.0638,0 -0.16286,0.05704 -0.19139,0 -0.057,-0.114128 0.031,-0.259 0,-0.382784 -0.0346,-0.1384 -0.12759,-0.255192 -0.19139,-0.382784 0,-0.191392 0.0314,-0.385384 0,-0.574176 -0.0663,-0.398 -0.30365,-0.752696 -0.38279,-1.148344 -0.0501,-0.250232 0,-0.510376 0,-0.765568 0,-0.06384 0,-0.127592 0,-0.191392 0,-0.06384 -0.0451,-0.14628 0,-0.191392 0.0902,-0.09022 0.26867,0.05704 0.38279,0 0.0807,-0.04032 0.12759,-0.127592 0.19139,-0.191392 0.12759,0 0.259,0.03096 0.38278,0 0.92422,-0.231056 -0.01,-0.09095 0.57418,-0.382784 0.11412,-0.05704 0.29256,0.09022 0.38277,0 0.0451,-0.04512 -0.0451,-0.14628 0,-0.191392 0.0451,-0.04512 0.14628,0.04512 0.1914,0 0.0451,-0.04512 0,-0.127592 0,-0.191384 0,-0.318992 0,-0.637976 0,-0.95696 0,-0.04544 -0.0214,-0.722672 0,-0.765568 0.0403,-0.0807 0.11069,-0.15104 0.19139,-0.191392 0.0667,-0.03336 1.00785,0 1.14835,0 0.0638,0 0.14628,0.04512 0.19139,0 0.0451,-0.04512 0,-0.127592 0,-0.191392 0,-0.191392 0,-0.382776 0,-0.574168 0,-0.637976 0,-1.275944 0,-1.91392 0,-0.180256 -0.0363,-0.84808 0,-0.956952 0.0134,-0.04032 0.52159,-0.53912 0.57418,-0.574176 0.11869,-0.07912 0.26408,-0.112264 0.38277,-0.191392 0.075,-0.05008 0.1107,-0.15104 0.1914,-0.191392 0.057,-0.02856 0.13432,0.02856 0.19139,0 0.0807,-0.04032 0.1276,-0.127592 0.19139,-0.191392 0.1495,-0.149488 0.40902,-0.464072 0.57418,-0.574176 0.11869,-0.07912 0.26408,-0.112256 0.38278,-0.191384 0.075,-0.05008 0.1058,-0.162864 0.19139,-0.191392 0.12105,-0.04032 0.26174,0.04032 0.38279,0 0.38085,-0.126952 0.0893,-0.178632 0.19138,-0.382784 0.0807,-0.1614 0.30209,-0.221392 0.38278,-0.382784 0.0286,-0.05704 0,-0.127592 0,-0.191392 0,-0.439856 -0.17616,-0.264248 -0.38278,-0.574176 -0.0791,-0.118696 -0.11226,-0.264088 -0.19138,-0.382784 -0.24894,-0.3734 -0.0924,-0.09458 -0.38279,-0.191392 -0.13533,-0.04512 -0.24745,-0.14628 -0.38278,-0.191384 -0.10359,-0.03456 -0.70037,0 -0.76557,0 -0.18866,0 -0.57144,0 -0.38278,0 0.1276,0 0.51037,0 0.38278,0 -0.53102,0 -0.54148,-0.0856 -0.95695,0.191384 -0.15015,0.100096 -0.22139,0.302088 -0.38279,0.382784 -0.057,0.02856 -0.14628,-0.04512 -0.19139,0 -0.0451,0.04512 0.0451,0.14628 0,0.191392 -0.0451,0.04512 -0.14628,-0.04512 -0.19139,0 -0.0451,0.04512 0.0451,0.14628 0,0.191392 -0.396,0.396 0.0154,-0.605136 -0.38278,0.191392 -0.0286,0.05704 0.057,0.162864 0,0.191392 -0.11412,0.05704 -0.26866,-0.05704 -0.38279,0 -0.057,0.02856 0.0451,0.14628 0,0.191392 -0.0451,0.04512 -0.14628,-0.04512 -0.19139,0 -0.0451,0.04512 0.0451,0.14628 0,0.191392 -0.0451,0.04512 -0.14628,-0.04512 -0.19139,0 -0.0451,0.04512 0.0286,0.134328 0,0.191392 -0.0403,0.0807 -0.12759,0.127592 -0.19139,0.191392 -0.0638,0.06376 -0.11069,0.15104 -0.1914,0.191392 -0.057,0.02856 -0.14628,-0.04512 -0.19138,0 -0.0451,0.04512 0.0451,0.14628 0,0.191392 -0.0451,0.04512 -0.16286,-0.05704 -0.19139,0 -0.057,0.11412 0.0403,0.261736 0,0.382776 -0.0286,0.0856 -0.14135,0.116328 -0.19139,0.191392 -0.42168,0.09638 -0.10117,0.393728 -0.1914,0.574176 -0.0403,0.0807 -0.15104,0.110696 -0.19139,0.191392 -0.132,0.264 0.23179,0.171192 -0.19139,0.382784 -0.057,0.02856 -0.14628,-0.04512 -0.19139,0 -0.0451,0.04512 0.0286,0.134328 0,0.191392 -0.63477,0.63476 0.0902,-0.180448 -0.19139,0.382784 -0.0731,0.1462 -0.53098,0.444568 -0.57418,0.574168 -0.0403,0.121048 0.0708,0.276624 0,0.382784 -0.0791,0.118696 -0.2819,0.09052 -0.38278,0.191392 -0.0451,0.04512 0.0286,0.134328 0,0.191392 -0.0403,0.0807 -0.15104,0.110696 -0.19139,0.191392 -0.0286,0.05704 0.0286,0.134328 0,0.191392 -0.0403,0.0807 -0.15105,0.110696 -0.19139,0.191392 -0.0286,0.05704 0.0286,0.134328 0,0.191392 -0.21159,0.423176 -0.11879,0.05936 -0.38278,0.191392 -0.79653,0.398264 0.2046,-0.0132 -0.1914,0.382784 -0.396,0.395992 0.0154,-0.605136 -0.38278,0.191384 -0.0286,0.05704 0.0451,0.14628 0,0.191392 -0.0902,0.09022 -0.29256,-0.09022 -0.38278,0 -0.0451,0.04512 0,0.1276 0,0.191392 0,0.06376 -0.0638,0.191392 0,0.191392 0.0638,0 0.0638,-0.191392 0,-0.191392 -0.0902,0 -0.15104,0.110696 -0.1914,0.191392 -0.0766,0.153112 0.0766,0.421064 0,0.574176 -0.0403,0.0807 -0.15104,0.110696 -0.19139,0.191392 -0.0565,0.112928 0.0439,0.442528 0,0.574176 -0.0451,0.135328 -0.14628,0.247448 -0.19139,0.382784 -0.0403,0.12104 0.057,0.268656 0,0.382776 -0.0403,0.0807 -0.15104,0.110696 -0.19139,0.191392 -0.0255,0.05104 0,1.061768 0,1.148352 0,0.06376 0.0286,0.134328 0,0.191392 -0.0403,0.0807 -0.15104,0.110688 -0.19139,0.191392 -0.0286,0.05704 0,0.127592 0,0.191392 0,0.127592 0,0.255184 0,0.382776 0,0.446584 0,0.89316 0,1.339744 0,0.318984 0,0.637968 0,0.95696 0,0.12576 -0.036,0.466184 0,0.574168 0.46211,1.386328 -0.0552,-0.301744 0.38278,0.574176 0.0379,0.07592 -0.0391,0.535048 0,0.574176 0.0451,0.04512 0.16286,-0.05704 0.19139,0 0.057,0.11412 -0.057,0.268656 0,0.382784 0.0286,0.05704 0.14628,-0.04512 0.19139,0 0.0451,0.04512 0,0.127592 0,0.191392 0,0.09024 -0.009,0.94828 0,0.956952 0.0451,0.04512 0.14628,-0.04512 0.1914,0 0.0902,0.09022 -0.0403,0.261736 0,0.382784 0.0451,0.135336 0.0905,0.281912 0.19139,0.382784 0.0451,0.04512 0.16286,-0.05704 0.19139,0 0.057,0.11412 0,0.255184 0,0.382784 0,0.06376 -0.0451,0.14628 0,0.191392 0.0451,0.04512 0.14628,-0.04512 0.19139,0 0.0451,0.04512 -0.0286,0.134328 0,0.191392 0.0403,0.0807 0.15104,0.110688 0.19139,0.191384 0.0286,0.05704 -0.0286,0.134336 0,0.191392 0.0403,0.0807 0.15104,0.110696 0.1914,0.191392 0.0286,0.05704 -0.0286,0.134336 0,0.191392 0.0403,0.0807 0.15104,0.110696 0.19139,0.191392 0.057,0.114128 -0.057,0.268664 0,0.382784 0.11483,0.229672 0.45933,0.344504 0.57417,0.574176 0.057,0.11412 -0.057,0.268656 0,0.382784 0.63476,0.63476 -0.0902,-0.180448 0.19139,0.382776 0.0403,0.0807 0.15105,0.110696 0.19139,0.191392 0.0286,0.05704 -0.0451,0.14628 0,0.191392 0.0451,0.04512 0.14628,-0.04512 0.19139,0 0.0902,0.09022 -0.057,0.268664 0,0.382784 0.0807,0.1614 0.30209,0.221392 0.38279,0.382784 0.0286,0.05704 -0.0451,0.14628 0,0.191392 0.0451,0.04512 0.13432,-0.02856 0.19139,0 0.22967,0.114832 0.3445,0.459336 0.57417,0.574176 0.057,0.02856 0.14628,-0.04512 0.1914,0 0.0451,0.04512 -0.0626,0.17888 0,0.191392 0.31279,0.06256 0.63796,0 0.95695,0 z"
         style="fill:#2ca952;fill-opacity:1;stroke:none" /><path
         transform="matrix(0.8,0,0,-0.8,0,169)"
         inkscape:connector-curvature="0"
         id="path3822"
         d="m 301.44142,120.57833 c 0,0.71772 0,1.43544 0,2.15316 0,0.39873 0,0.79746 0,1.19619 0,0.1595 0.0885,0.34578 0,0.47848 -0.0989,0.14837 -0.33011,0.14033 -0.47848,0.23924 -0.0797,0.0798 -0.15949,0.15949 -0.23924,0.23924 0,0.0797 0.0564,0.18285 0,0.23924 -0.0564,0.0564 -0.23924,0.0798 -0.23924,0 0,-0.0798 0.1595,0 0.23924,0 0.0797,0 0.1595,0 0.23924,0 0.47848,0 0.95696,0 1.43544,0 0.15949,0 0.33582,0.0713 0.47848,0 0.0713,-0.0357 -0.0357,-0.16791 0,-0.23924 0.0504,-0.10087 0.17668,-0.1454 0.23924,-0.23924 0.0989,-0.14837 0.14032,-0.33011 0.23924,-0.47848 0.0625,-0.0938 0.1888,-0.13836 0.23923,-0.23924 0.0357,-0.0713 -0.0564,-0.18285 0,-0.23924 0.0564,-0.0564 0.18285,0.0564 0.23924,0 0.0564,-0.0564 0,-0.15949 0,-0.23923 0,-0.0797 0.0357,-0.16792 0,-0.23924 -0.0504,-0.10088 -0.15949,-0.1595 -0.23924,-0.23924 -0.0797,-0.0798 -0.13836,-0.18881 -0.23923,-0.23924 -0.0713,-0.0357 -0.16792,0.0357 -0.23924,0 -0.10088,-0.0504 -0.13837,-0.18881 -0.23924,-0.23924 -0.0713,-0.0357 -0.16359,0.0252 -0.23924,0 -1.05504,-0.35168 -0.25253,-0.0266 -0.47848,-0.47848 -0.0504,-0.10087 -0.15949,-0.15949 -0.23924,-0.23924 -0.0797,-0.0798 -0.13837,-0.1888 -0.23924,-0.23924 -0.0713,-0.0357 -0.2199,0.0774 -0.23924,0 -0.0774,-0.30946 0,-0.63797 0,-0.95696 z"
         style="fill:#2ca952;fill-opacity:1;stroke:none" /><path
         inkscape:connector-curvature="0"
         id="path3826"
         d="m 242.68427,77.322114 c -0.24288,-0.63528 -0.19139,-1.254768 -0.19139,-1.913912 0,-0.12576 -0.036,-0.466192 0,-0.574176 0.0451,-0.135328 0.14628,-0.247448 0.19139,-0.382776 0.0202,-0.06056 -0.0286,-0.134336 0,-0.191392 0.11484,-0.229672 0.45934,-0.344504 0.57417,-0.574176 0.0286,-0.05704 -0.0286,-0.134328 0,-0.191392 0.0403,-0.0807 0.12759,-0.127592 0.19139,-0.191392 0.0638,-0.06384 0.1107,-0.15104 0.1914,-0.191392 0.057,-0.02856 0.14628,0.04512 0.19139,0 0.0451,-0.04512 -0.0451,-0.14628 0,-0.191392 0.0451,-0.04512 0.14628,0.04512 0.19139,0 0.0451,-0.04512 -0.0286,-0.134328 0,-0.191392 0.39826,-0.79652 -0.0132,0.204608 0.38278,-0.191392 0.0451,-0.04512 -0.0451,-0.14628 0,-0.191392 0.0451,-0.04512 0.14628,0.04512 0.1914,0 0.0391,-0.03912 -0.0379,-0.498288 0,-0.574168 0.0403,-0.0807 0.15104,-0.110696 0.19139,-0.191392 0.0286,-0.05704 -0.0202,-0.130872 0,-0.191392 0.0451,-0.135336 0.14628,-0.247448 0.19138,-0.382784 0.0403,-0.121048 -0.057,-0.268656 0,-0.382784 0.0403,-0.0807 0.15105,-0.110696 0.19139,-0.191392 0.0286,-0.05704 0,-0.127592 0,-0.191392 0,-0.127592 0,-0.255184 0,-0.382784 0,-0.401016 0.0562,-0.585576 -0.19139,-0.956952 -0.10009,-0.150144 -0.30208,-0.221392 -0.38277,-0.382784 -0.0286,-0.05704 0.0286,-0.134328 0,-0.191392 -0.0403,-0.0807 -0.15105,-0.110696 -0.1914,-0.191392 -0.0286,-0.05704 0.0286,-0.134328 0,-0.191392 -0.0403,-0.0807 -0.1276,-0.127592 -0.19139,-0.191392 -0.12759,-0.127592 -0.28269,-0.23264 -0.38278,-0.382784 -0.0354,-0.05304 0.0451,-0.14628 0,-0.191384 -0.0451,-0.04512 -0.14628,0.04512 -0.19139,0 -0.0451,-0.04512 0.0451,-0.14628 0,-0.191392 -0.396,-0.396 0.0154,0.605128 -0.38279,-0.191392 -0.0286,-0.05704 0.0286,-0.134336 0,-0.191392 -0.0807,-0.1614 -0.30208,-0.221392 -0.38278,-0.382784 -0.0286,-0.05704 0.0451,-0.14628 0,-0.191392 -0.0451,-0.04512 -0.16286,0.05704 -0.19139,0 -0.057,-0.114128 0.031,-0.259 0,-0.382784 -0.021,-0.08377 -0.51768,-1.073016 -0.57417,-1.148344 -0.10827,-0.14436 -0.2827,-0.232648 -0.38279,-0.382784 -0.0354,-0.05312 0.0286,-0.134328 0,-0.191392 -0.0403,-0.0807 -0.15104,-0.110696 -0.19139,-0.191392 -0.0286,-0.05704 0.0451,-0.14628 0,-0.191392 -0.396,-0.395992 0.0155,0.605136 -0.38278,-0.191392 -0.0286,-0.05704 0,-0.127592 0,-0.191392 0,-0.191392 0,-0.382784 0,-0.574176 0,-0.06376 -0.0354,-0.138304 0,-0.191392 0.10009,-0.150136 0.27451,-0.238424 0.38278,-0.382776 0.0856,-0.114128 0.11226,-0.264088 0.19139,-0.382784 0.0501,-0.07504 0.15104,-0.110696 0.1914,-0.191392 0.0286,-0.05704 -0.0451,-0.14628 0,-0.191392 0.0451,-0.04512 0.14628,0.04512 0.19139,0 0.0451,-0.04512 -0.0451,-0.14628 0,-0.191392 0.0451,-0.04512 0.13433,0.02856 0.19139,0 0.0807,-0.04032 0.11069,-0.15104 0.19139,-0.191392 0.057,-0.02856 0.14628,0.04512 0.19139,0 0.396,-0.395992 -0.60513,0.01552 0.19139,-0.382784 0.057,-0.02856 0.1276,0 0.19139,0 0.0638,0 0.1276,0 0.19139,0 0.3714,0 0.63988,-0.06224 0.95696,0.191392 0.35274,0.282192 0.75045,0.735336 0.95695,1.148352 0.27839,0.55676 0.1375,0.72652 0.38279,1.339736 0.0335,0.08377 0.15105,0.110696 0.19139,0.191392 0.0286,0.05704 -0.0286,0.134328 0,0.191392 0.0403,0.0807 0.15105,0.110696 0.19139,0.191392 0.0286,0.05704 -0.0451,0.14628 0,0.191392 0.0451,0.04512 0.14628,-0.04512 0.19139,0 0.0451,0.04512 -0.0451,0.14628 0,0.191392 0.0451,0.04512 0.13433,-0.02856 0.1914,0 0.20573,0.102864 0.37692,0.264432 0.57417,0.382784 0.24465,0.146784 0.52817,0.22452 0.76556,0.382776 0.075,0.05008 0.1107,0.151048 0.19139,0.191392 0.057,0.02856 0.1276,0 0.1914,0 0.0638,0 0.14628,0.04512 0.19139,0 0.0451,-0.04512 0,-0.127592 0,-0.191392 0,-0.191384 0,-0.382776 0,-0.574168 0,-0.382784 0,-0.765568 0,-1.148352 0,-0.191392 0,-0.382784 0,-0.574176 0,-0.06376 0.0202,-0.130864 0,-0.191392 -0.0451,-0.135328 -0.14628,-0.247448 -0.19139,-0.382776 -0.0317,-0.095 -0.0163,-0.55788 0,-0.574176 0.0451,-0.04512 0.14628,0.04512 0.19139,0 0.0451,-0.04512 0,-0.127592 0,-0.191392 0,-0.127592 -0.057,-0.268656 0,-0.382784 0.0286,-0.05704 0.12759,0 0.19139,0 0.0862,0 0.51593,-0.02912 0.57418,0 0.19484,0.09742 0.30508,0.418768 0.38278,0.574176 0.12759,0.255184 0.29256,0.494896 0.38278,0.765568 0.0202,0.06048 -0.0286,0.134328 0,0.191384 0.0403,0.0807 0.15104,0.110696 0.19139,0.191392 0.0214,0.04288 0,0.720088 0,0.765568 0,0.446584 0,0.89316 0,1.339744 0,0.382776 0,0.76556 0,1.148344 0,0.127592 0.057,0.268656 0,0.382784 -0.0286,0.05704 -0.13433,-0.02856 -0.19139,0 -0.0508,0.02544 -0.54876,0.52336 -0.57417,0.574176 -0.0286,0.05704 0.0286,0.134328 0,0.191392 -0.0403,0.0807 -0.15105,0.110688 -0.19139,0.191392 -0.0286,0.05704 0,0.127592 0,0.191384 0,0.1276 -0.0902,0.29256 0,0.382784 0.0793,0.270672 0.43884,-0.135328 0.57417,0 0.0451,0.04512 -0.0451,0.14628 0,0.191392 0.0451,0.04512 0.12759,0 0.19139,0 0.57417,0 1.14835,0 1.72252,0 0.1276,0 0.25519,0 0.38279,0 0.0638,0 0.19139,0.06384 0.19139,0 0,-0.06376 -0.2365,-0.04512 -0.19139,0 0.10087,0.100872 0.30365,0.07272 0.38278,0.191392 0.0159,0.02384 -0.0223,0.743208 0,0.765568 0.0451,0.04512 0.14628,-0.04512 0.19139,0 0.0902,0.09022 -0.0902,0.29256 0,0.382784 0.0451,0.04512 0.14628,-0.04512 0.19139,0 0.0902,0.09022 -0.057,0.268656 0,0.382776 0.11394,0.22788 0.38278,0.26708 0.38278,0.191392 0,-0.06376 -0.19139,-0.06376 -0.19139,0 0,0.791992 0.58966,-0.620608 0.19139,0.574176 -0.0432,0.1296 -0.50107,0.427976 -0.57417,0.574176 -0.0286,0.05704 0.0286,0.134328 0,0.191392 -0.63476,0.634768 0.0902,-0.180448 -0.19139,0.382784 -0.0807,0.161392 -0.30209,0.221384 -0.38278,0.382784 -0.0286,0.05704 0.0451,0.14628 0,0.191384 -0.0451,0.04512 -0.14628,-0.04512 -0.19139,0 -0.0451,0.04512 0.0286,0.134336 0,0.191392 -0.0403,0.0807 -0.15105,0.110696 -0.1914,0.191392 -0.0286,0.05704 0.0286,0.134336 0,0.191392 -0.0403,0.0807 -0.15104,0.110696 -0.19139,0.191392 -0.0286,0.05704 0.0451,0.14628 0,0.191392 -0.0451,0.04512 -0.14628,-0.04512 -0.19139,0 -0.10087,0.100872 -0.0905,0.281912 -0.19139,0.382784 -0.0451,0.04512 -0.13433,-0.02856 -0.19139,0 -0.79652,0.398264 0.2046,-0.0132 -0.1914,0.382784 -0.0451,0.04512 -0.14628,-0.04512 -0.19139,0 -0.0451,0.04512 0.057,0.162856 0,0.191392 -0.11412,0.05704 -0.26865,-0.05704 -0.38278,0 -0.057,0.02856 0.0451,0.14628 0,0.191392 -0.0451,0.04512 -0.13433,-0.02856 -0.19139,0 -0.1614,0.0807 -0.22139,0.30208 -0.38278,0.382776 -0.057,0.02856 -0.1276,0 -0.19139,0 -0.0638,0.06376 -0.1107,0.151048 -0.19139,0.191392 -0.057,0.02856 -0.14628,-0.04512 -0.1914,0 -0.396,0.396 0.60514,-0.01552 -0.19139,0.382784 -0.057,0.02856 -0.14628,-0.04512 -0.19139,0 -0.0451,0.04512 0.0202,0.130872 0,0.191392 -0.0451,0.135336 -0.0905,0.281912 -0.19139,0.382784 -0.0451,0.04512 -0.13433,-0.02856 -0.19139,0 -0.0807,0.04032 -0.11069,0.15104 -0.1914,0.191392 -0.15311,0.07656 -0.42105,-0.07656 -0.57416,0 -0.057,0.02856 0.0451,0.14628 0,0.191392 -0.0451,0.04512 -0.13088,-0.02016 -0.1914,0 -0.13533,0.04512 -0.24744,0.14628 -0.38278,0.191392 -0.12105,0.04032 -0.26866,-0.05704 -0.38278,0 -0.0807,0.04032 -0.1107,0.15104 -0.1914,0.191392 -0.11412,0.05704 -0.26865,-0.05704 -0.38278,0 -0.16139,0.0807 -0.22138,0.30208 -0.38278,0.382784 -0.057,0.02856 -0.14628,-0.04512 -0.1914,0 -0.0451,0.04512 0.0451,0.14628 0,0.191384 -0.0902,0.09022 -0.29256,-0.09022 -0.38277,0 -0.0451,0.04512 0.0451,0.14628 0,0.191392 -0.0451,0.04512 -0.13434,-0.02856 -0.19139,0 -0.1614,0.0807 -0.2214,0.302088 -0.38279,0.382784 -0.057,0.02856 -0.12759,0 -0.19139,0 -0.72634,0 -0.26431,0.04736 -1.33974,-0.382784 z"
         style="fill:#2ca952;fill-opacity:1;stroke:none" /><path
         inkscape:connector-curvature="0"
         id="path3832"
         d="m 247.46905,51.101501 c -2.40211,1.029472 -0.54324,-0.03096 -1.91392,1.339736 -0.16264,0.162656 -0.38699,0.249088 -0.57416,0.382784 -0.25958,0.185408 -0.54001,0.348616 -0.76557,0.574176 -0.16265,0.162648 -0.25519,0.382784 -0.38279,0.574168 -0.3226,0.483904 -0.46097,0.58236 -0.57417,1.148352 -0.025,0.12512 0.031,0.259 0,0.382784 -0.0346,0.138392 -0.16341,0.242896 -0.19139,0.382784 -0.05,0.250232 0,0.510376 0,0.76556 0,0.156696 -0.0414,0.832952 0,0.95696 0.1496,0.448816 0.70936,1.002016 1.14835,1.148352 1.36509,0.455024 0.16108,-0.004 1.53113,0.191384 0.19972,0.02856 0.37517,0.158232 0.57417,0.191392 0.18879,0.03144 0.38651,-0.03752 0.57418,0 0.13988,0.028 0.24438,0.156792 0.38278,0.191392 0.12379,0.03096 0.26174,-0.04032 0.38279,0 0.0856,0.02856 0.11632,0.141344 0.19138,0.191392 0.1276,0.06376 0.25519,0.1276 0.38278,0.191392 0.0638,0 0.13434,-0.02856 0.1914,0 0.58366,0.291832 -0.35004,0.151728 0.57417,0.382784 0.0933,0.02328 0.66436,-0.05056 0.76557,0 0.0807,0.04032 0.11632,0.141344 0.19139,0.191392 0.1187,0.07912 0.26408,0.112264 0.38278,0.191392 0.15014,0.100088 0.22139,0.30208 0.38278,0.382784 0.057,0.02856 0.14628,-0.04512 0.19139,0 0.0451,0.04512 -0.0451,0.14628 0,0.191392 0.0451,0.04512 0.13433,-0.02856 0.1914,0 0.0807,0.04032 0.12759,0.127592 0.19139,0.191392 0.0638,0.06376 0.15104,0.110688 0.19139,0.191384 0.0286,0.05704 -0.0451,0.14628 0,0.191392 0.0451,0.04512 0.14628,-0.04512 0.19139,0 0.12715,0.127152 -0.12715,0.255632 0,0.382784 0.0451,0.04512 0.14628,-0.04512 0.19139,0 0.0451,0.04512 -0.0286,0.134328 0,0.191392 0.0403,0.0807 0.15104,0.110696 0.1914,0.191392 0.0286,0.05704 -0.0451,0.14628 0,0.191392 0.0451,0.04512 0.13432,-0.02856 0.19139,0 0.0807,0.04032 0.11069,0.15104 0.19139,0.191392 0.15311,0.07656 0.42106,-0.07656 0.57417,0 0.057,0.02856 -0.0451,0.14628 0,0.191392 0.006,0.0064 0.52776,0 0.57417,0 0.1276,0 0.2552,0 0.38279,0 0.0638,0 0.19139,0.06376 0.19139,0 0,-0.06376 -0.25519,0 -0.19139,0 0.19139,0 0.38278,0 0.57417,0 0.0638,0 0.1914,0.06376 0.1914,0 0,-0.06376 -0.23651,0.04512 -0.1914,0 0.10088,-0.100872 0.28192,-0.09052 0.38279,-0.191392 0.39599,-0.396 -0.60514,0.01552 0.19139,-0.382784 0.057,-0.02856 0.14628,0.04512 0.19138,0 0.0451,-0.04512 0,-0.127592 0,-0.191392 0,-0.06376 0,-0.127592 0,-0.191392 0,-0.0652 0.0346,-0.661984 0,-0.76556 -0.0451,-0.135336 -0.14628,-0.247456 -0.19138,-0.382784 -0.0202,-0.06056 0.0286,-0.134328 0,-0.191392 -0.0403,-0.0807 -0.16286,-0.1058 -0.19139,-0.191392 -0.0678,-0.203376 0.0678,-0.562192 0,-0.765568 -0.0902,-0.270664 -0.25519,-0.510376 -0.38279,-0.765568 -0.0638,-0.127592 -0.118,-0.260456 -0.19139,-0.382776 -0.11834,-0.197248 -0.27991,-0.36844 -0.38278,-0.574176 -0.0902,-0.180448 -0.11647,-0.386864 -0.19139,-0.574176 -0.053,-0.132448 -0.11227,-0.264088 -0.1914,-0.382784 -0.0501,-0.07504 -0.16285,-0.1058 -0.19139,-0.191392 -0.0403,-0.12104 0,-0.255184 0,-0.382784 0,-0.06376 0.0286,-0.134328 0,-0.191384 -0.0942,-0.188336 -0.6714,-0.577232 -0.76556,-0.765568 -0.0286,-0.05704 0,-0.127592 0,-0.191392 -0.0638,-0.127592 -0.11226,-0.264088 -0.19139,-0.382784 -0.18775,-0.281624 -0.57782,-0.483936 -0.76557,-0.765568 -0.54417,-0.816264 0.25365,0.06224 -0.57417,-0.76556 -0.11257,-0.112568 -0.72125,-0.676936 -0.76557,-0.765568 -0.0286,-0.05704 0.0451,-0.14628 0,-0.191392 -0.46485,-0.464848 -0.28104,0.05688 -0.57417,-0.382784 -0.0791,-0.118696 -0.0905,-0.281912 -0.19139,-0.382784 -0.0451,-0.04512 -0.14628,0.04512 -0.19139,0 -0.0451,-0.04512 0.0451,-0.14628 0,-0.191392 -0.0451,-0.04512 -0.13433,0.02856 -0.1914,0 -0.79652,-0.398256 0.2046,0.0132 -0.19139,-0.382776 -0.0451,-0.04512 -0.14628,0.04512 -0.19139,0 -0.0451,-0.04512 0.0451,-0.14628 0,-0.191392 -0.0451,-0.04512 -0.14628,0.04512 -0.19139,0 -0.10087,-0.100872 -0.0507,-0.40624 -0.19139,-0.382784 -0.36694,0.06112 -0.64744,0.78052 -0.95696,0.574176 -0.28586,-0.190576 0.3154,-0.620072 0.38278,-0.95696 0.0125,-0.06256 -0.14628,0.04512 -0.19138,0 -0.0451,-0.04512 0,-0.127592 0,-0.191392"
         style="fill:#2ca952;fill-opacity:1;stroke:none" /><path
         inkscape:connector-curvature="0"
         id="path3836"
         d="m 236.75114,48.613408 c 0.38278,0.191392 0.77424,0.366336 1.14834,0.574176 0.20108,0.111712 0.39016,0.244768 0.57418,0.382784 0.35036,0.262776 0.0188,0.197664 0.57417,0.382784 0.18157,0.06048 0.39261,-0.06056 0.57418,0 0.0856,0.02856 0.11069,0.15104 0.19139,0.191392 0.057,0.02856 0.12759,0 0.19139,0 0.0638,0 0.12759,0 0.19139,0 0.25519,0 0.51038,0 0.76556,0 0.51038,0 1.02076,0 1.53114,0 0.19139,0 0.40298,0.08559 0.57417,0 0.057,-0.02856 -0.0451,-0.14628 0,-0.191392 0.0902,-0.09022 0.26866,0.05704 0.38278,0 0.79653,-0.398264 -0.2046,0.0132 0.19139,-0.382784 0.0902,-0.09022 0.29256,0.09022 0.38279,0 0.0451,-0.04512 -0.0451,-0.14628 0,-0.191392 0.0957,-0.0957 0.47848,0.0957 0.57417,0 0.0451,-0.04512 -0.0451,-0.14628 0,-0.191392 0.0451,-0.04512 0.14628,0.04512 0.1914,0 0.0451,-0.04512 0.0451,-0.14628 0,-0.191392 -1.9e-4,-1.84e-4 -0.57332,2.88e-4 -0.57418,0 -0.0856,-0.02856 -0.1058,-0.162856 -0.19139,-0.191392 -0.17175,-0.121048 -0.39261,0.06056 -0.57418,0 -0.13533,-0.04512 -0.24745,-0.14628 -0.38278,-0.191392 -0.12104,-0.04032 -0.25519,0 -0.38278,0 -0.25519,0 -0.51038,0 -0.76557,0 -0.0638,0 -0.14628,0.04512 -0.19139,0 -0.0451,-0.04512 0.0451,-0.14628 0,-0.191392 -0.0451,-0.04512 -0.12759,0 -0.19139,0 -0.12759,0 -0.25519,0 -0.38278,0 -0.76557,0 -1.53113,0 -2.2967,0 -0.25519,0 -0.51038,0 -0.76557,0 -0.12759,0 -0.25692,-0.02096 -0.38277,0 -0.32088,0.05344 -0.63798,0.1276 -0.95696,0.191392 z"
         style="fill:#eaf9ee;fill-opacity:1;stroke:none" /></g><text
       xml:space="preserve"
       style="font-size:46.21007156px;font-style:normal;font-weight:normal;line-height:125%;letter-spacing:0px;word-spacing:0px;fill:#ce6111;fill-opacity:1;stroke:none;font-family:Sans"
       x="152.33849"
       y="-76.328201"
       id="text3033"
       sodipodi:linespacing="125%"
       transform="scale(1,-1)"><tspan
         sodipodi:role="line"
         x="152.33849"
         y="-76.328201"
         style="font-style:normal;font-variant:normal;font-weight:bold;font-stretch:normal;baseline-shift:baseline;fill:#ce6111;fill-opacity:1;font-family:Prime Minister of Canada;-inkscape-font-specification:Prime Minister of Canada Bold"
         id="tspan3037">SmallWorld</tspan></text>
</g></svg>