<?xml version="1.0" encoding="UTF-8" standalone="no"?>
<!-- Created with Inkscape (http://www.inkscape.org/) -->

<svg
   xmlns:dc="http://purl.org/dc/elements/1.1/"
   xmlns:cc="http://creativecommons.org/ns#"
   xmlns:rdf="http://www.w3.org/1999/02/22-rdf-syntax-ns#"
   xmlns:svg="http://www.w3.org/2000/svg"
   xmlns="http://www.w3.org/2000/svg"
   xmlns:sodipodi="http://sodipodi.sourceforge.net/DTD/sodipodi-0.dtd"
   xmlns:inkscape="http://www.inkscape.org/namespaces/inkscape"
   viewBox="0 0 145 166"
   version="1.1">
   <path
     d="m 65.434112,138.25121 c -25.355012,0 -45.908762,5.2575 -45.908762,11.7425 0,6.48625 20.55375,11.745 45.908762,11.745 25.356238,0 45.911238,-5.25875 45.911238,-11.745 0,-6.485 -20.555,-11.7425 -45.911238,-11.7425"
     id="path3057"
     inkscape:connector-curvature="0"
     style="fill:#cccbcc;fill-opacity:1;fill-rule:nonzero;stroke:none" /><g
     id="g3037"
     transform="matrix(1.25,0,0,-1.25,-45.2834,211.02371)" /><path
     d="m 138.8891,72.15996 c -0.235,-0.41875 -1.19,-1.71875 -3.3825,-0.69875 -0.28125,0.13 -0.5175,0.2675 -0.63625,0.3425 -0.935,0.59875 -1.02875,1.6175 -1.00125,2.295 -0.14125,0.11125 -0.28,0.21625 -0.36875,0.27125 l -0.03,0.01375 c -0.3275,0.15375 -1.2275,0.695 -8.975,5.81875 -0.56875,0.37625 -0.94875,0.62875 -1.01875,0.67375 -0.14,0.09 -0.27375,0.21 -0.40375,0.35 -0.48875,-0.295 -1.0325,-0.42125 -1.66625,-0.19375 -0.74625,0.27125 -1.4375,0.55625 -2.0675,0.85 -3.41875,1.5875 -5.325,3.5325 -5.83125,5.947488 -0.55875,2.656262 0.80625,4.916262 1.97875,6.445012 l -1.57375,-0.275 0.38125,0.88875 c -2.875,-0.100012 -7.2375,1.365 -8.1425,1.78625 -0.385,0.178738 -0.67,0.353738 -0.8975,0.55 -1.11625,0.964988 -1.16,2.757488 -1.21,5.02624 -0.0138,0.54751 -0.0312,1.31376 -0.0763,1.77 -0.24,0.1575 -0.73625,0.45251 -1.655,0.88001 l -0.495,0.23 c -0.70125,-0.65125 -1.74875,-0.82 -3.9875,-0.65125 l -0.68,0.0237 -1.6225,-10.0175 c -0.06375,-0.50875 -0.12125,-1 -0.175,-1.48125 6.65125,-1.07 12.09875,-4.23 13.335,-5.72875 0.505,-0.6075 0.32625,-1.81 -0.0675,-3.045 0.80625,-0.03 1.49,0.1325 2.78125,0 2.27625,-0.23 5.80875,-4.4175 5.80875,-4.4175 1.2425,0.48625 2.03375,-0.495 3.57,-1.73375 1.53375,-1.23625 3.64,-4.86125 3.98625,-6.1025 0.3425,-1.2375 -1.22375,-3.84875 -1.81,-4.40125 -0.58375,-0.55125 -2.47125,-0.42125 -2.47125,-0.42125 0,0 0.18,-0.9075 0.145,-1.49375 -0.0325,-0.58625 -1.3625,-2.8825 -2.19875,-3.17375 -0.83625,-0.29 -2.84,-0.169162 -2.84,-0.169162 0,0 1.08303,-1.352513 2.14751,-2.860226 1.06449,-1.507712 2.11044,-3.170637 2.03628,-3.791462 -0.74291,-1.325 -3.96959,-3.1796 -5.34293,-2.524188 -1.28375,-0.02375 -6.49377,9.041288 -6.49377,9.041288 0,0 -1.75834,-0.6125 -2.33959,-0.4275 -0.58125,0.18625 -3.3225,3.26125 -3.8575,4.4575 -0.53375,1.19625 0.70875,3.555 0.5275,4.98625 -0.12375,0.96125 -0.84125,1.63 -1.3025,1.9725 -0.875,-0.16375 -1.775,-0.16 -2.30375,0.17625 -1.28,0.81625 -2.7675,2.06125 -3.87625,3.12375 0.0525,-0.46625 0.09375,-0.77375 0.09375,-0.77375 0,0 -1.36125,-0.5525 -2.69,0.38625 -2.33625,1.6525 -5.57625,5.32625 -8.2475,6.18875 -2.98125,0.9625 -7.2175,0.07125 -9.42625,-0.5275 0.2625,-1.19875 0.40125,-1.21625 0.516263,-2.7 0.408725,-0.04375 1.149987,-0.15125 2.126237,-0.34625 13.1825,-1.06375 20.845,-9.31625 20.845,-9.31625 l 0.67125,-5.33625 c -4.2825,-3.74125 -13.82125,-5.83125 -22.2775,-6.98625 -2.42,-3.46125 -7.26875,-8.59875 -14.422487,-7.81125 -7.3775,0.81375 -12.886263,4.93 -15.578763,7.385 -21.44625,2.22 -24.18125,6.87875 -24.18125,6.87875 l 0.16625,5.33625 c 2.85125,5.1575 9.2225,7.47 9.2225,7.47 l 1.09125,0.06125 c 0.77875,0.5525 1.40125,0.965 1.64,1.0475 -1.185,1.2875 -1.3975,1.9975 -2.22375,3.4625 -0.5475,0.96875 -1.14875,1.68375 -1.74625,2.43375 -0.32625,-0.06875 -0.7225,-0.10375 -1.20875,-0.045 -1.56125,0.185 -10.64125,3.23375 -11.73125,12.89375 -0.28875,4.72 2.925,13.58375 14.175,12.05249 l 0.01125,0.30376 c -3.03,0.8525 -7.48125,2.45 -8.14,2.795 -0.31875,0.16499 -0.64,0.59999 -0.93625,1.16125 -2.98125,-1.66625 -6.79375,-4.88125 -7.57125,-5.2625 -0.9325,-0.4625 -2.52875,0.70374 -3.68125,1.7725 -1.15,1.06999 -1.2175,4.11875 -0.87375,5.06249 0.3425,0.94751 2.20625,2.21001 2.4125,2.35875 0.20625,0.15376 0.17375,0.22251 -0.845,0.68501 -1.02,0.46625 -6.3812505,2.43 -6.6900005,2.98375 -1.06375,1.92374 1.115,4.49124 1.9625,5.70624 0.84875,1.21876 3.0312505,0.41126 3.0312505,0.41126 0,0 -0.1425,2.2925 -0.03625,3.15124 0.10375,0.85876 1.8625,1.595 1.8625,1.595 0,0 0.31375,2.91626 0.94125,3.93376 0.62875,1.01375 3.28,1.21875 5.09625,0.425 1.81375,-0.795 4.61125,-3.55375 5.095,-4.55875 0.485,-1.01 0.12625,-1.83625 0.315,-2.07125 0.08,-0.1025 0.77875,-0.61001 1.555,-1.16875 0.7225,1.3825 1.44375,2.395 2.0625,2.5475 0.9275,0.22625 2.9825,-0.47375 5.0525,-1.35875 0.23875,8.56125 0.5675,15.4125 1.04875,15.84875 0.36,0.33 1.986262,0.315 4.35,0.1275 -0.4675,1.4725 -0.973738,3.53875 -0.81,5.20625 0.29125,2.9475 11.865013,6.7575 18.3975,2.305 3.171262,-2.1625 5.2475,-7.45875 4.8975,-9.725 0.435,-0.0213 0.863763,-0.0325 1.27125,-0.0425 2.330012,-0.0475 5.4,0.47 8.7175,1.24875 0.196262,1.79125 1.118762,6.92125 5.297513,8.76875 4.688737,2.06875 12.777487,2.2225 15.041237,-3.0275 1.77375,0.4175 2.9375,0.535 3.17125,0.16375 1.36125,-2.17 4.75375,-16.29375 5.08125,-29.695 l 0.02625,0 c 4.52625,-0.095 5.0825,-0.34876 5.445,-0.5175 0,0 1.9625,-0.67125 2.49375,-0.26751 0.30375,0.23126 0.54,0.41001 0.8175,0.54876 0.50375,0.255 1.20125,0.60375 4.7925,-0.76625 l 3.33,-1.27125 -0.70375,-0.5625 c 1.28375,0.11875 2.35875,-0.265 2.87,-0.50375 0.19875,-0.09 0.30875,-0.15501 0.30875,-0.15501 l 0.20375,-0.12249 c 2.02875,0.86875 5.44375,0.10125 6.58875,-0.42876 0.56,-0.26375 0.9825,-0.58374 1.28375,-0.98124 1.065,-1.39626 0.58,-3.69251 -0.0787,-5.49751 0.115,-0.07 0.23875,-0.12999 0.33625,-0.21124 1.37375,-1.16749 1.55125,-3.51625 1.29,-5.17375 -0.1175,-0.7625 -0.3475,-1.39625 -0.65,-1.935 0.16,-0.0913 0.32375,-0.17626 0.45875,-0.29125 1.3725,-1.16876 1.55125,-3.5175 1.28875,-5.1775 -0.225,-1.410012 -0.78375,-2.4475 -1.58,-3.038762 0.45,-0.323738 0.82,-0.625 1.03125,-0.857501 0.8825,-0.979987 0.62125,-2.264987 0.25875,-3.229987 l 0.0362,-0.01626 c 0.08,-0.03749 8.33625,-4.394988 9.05,-5.592488 0.74125,-1.24875 0.11375,-2.74 -0.365,-3.4925 1.61125,-1.00125 2.82125,-1.7875 3.05,-2.0275 1.20375,-1.28125 0.505,-2.85625 -1.38125,-6.14875"
     id="path3059"
     inkscape:connector-curvature="0"
     sodipodi:nodetypes="cccccccsccccccccccccccccccccccccccccsccccccccccccccccccccccccccccccccccccccccccccccccccccccccccccccccccccccccccccccccccccccc"
     style="fill:#231f20;fill-opacity:1;fill-rule:nonzero;stroke:none" /><path
     d="m 74.197862,86.22371 c 0.04624,0.0825 0.09624,0.15125 0.14125,0.234987 0,0 -0.04626,-0.08625 -0.14125,-0.234987"
     id="path3061"
     inkscape:connector-curvature="0"
     style="fill:#ffffff;fill-opacity:1;fill-rule:nonzero;stroke:none" /><path
     d="m 95.43035,112.63745 c -0.155,-1.61249 -0.32,-3.15124 -0.4825,-4.64874 -1.7725,2.64 -5.6325,7.655 -6.33375,8.71 -0.9025,1.35625 -2.1675,2.89749 -3.06875,2.89749 -0.905,0 -5.24,-7.1525 -6.68375,-8.70124 -1.448737,-1.5475 -2.891237,-4.05875 -3.253737,-3.0925 -0.362513,0.96875 -3.792513,6.76625 -5.058751,7.9275 -1.262499,1.15999 -2.707512,2.70875 -3.428762,2.70875 -0.72375,0 -2.52875,-0.38375 -4.335,-2.9 -1.806263,-2.515 -3.43375,-5.80376 -4.1525,-5.415 -0.725,0.3875 -2.71125,5.21874 -3.795,7.15375 -1.0825,1.93749 -2.528738,4.45125 -3.615,4.45125 -1.08125,0 -2.34375,-3.09625 -4.1525,-3.87125 -1.80625,-0.7725 -5.2375,-6.37875 -5.959988,-6.18875 -0.581262,0.155 -5.247512,6.38124 -7.045012,8.80875 0.08375,3.765 0.17375,7.005 0.26625,8.98625 0.3325,7.08625 0.765,12.37625 1.31125,12.56875 0.54875,0.1925 18.44125,-3.09 27.55875,-1.93375 9.11375,1.1575 26.57375,6.95875 28.03375,6.57625 1.45875,-0.38625 5.65125,-18.95251 4.195,-34.03751"
     id="path3079"
     inkscape:connector-curvature="0"
     style="fill:#ce6111;fill-opacity:1;fill-rule:nonzero;stroke:none" /><path
     d="m 41.83285,108.1912 c 0.541263,0.38751 7.766263,9.08626 8.85125,9.08626 1.0825,0 5.41875,-10.24751 7.406262,-10.82875 1.984988,-0.58126 1.623738,0.58124 2.346238,1.16 0.723763,0.58249 4.515,6.57625 5.41875,7.54 0.9025,0.9675 2.890012,-0.58 3.431262,-2.32001 0.54,-1.74 5.598738,-8.51 6.32125,-9.47624 0.7225,-0.96625 1.444988,0.38875 2.16625,0.77374 0.723738,0.3875 6.504988,10.25251 7.588738,11.02251 1.08375,0.77625 1.2625,-0.58 1.625,-1.35126 0.36,-0.77374 5.23875,-7.93 7.225,-11.21625 0.03125,-0.055 0.05875,-0.0962 0.08625,-0.14374 -1.16,-9.507513 -2.2,-16.12875 -1.7875,-19.77625 0.5475,-4.83625 -1.27375,-1.35375 -2.73625,-0.19375 -1.345,1.07 -6.07875,4.59375 -15.39125,1.64375 1.18125,1.44625 2.280012,3.1 3.0375,4.702487 0.6425,1.361263 -1.709988,1.360013 -2.1375,0.682501 -0.17125,-0.271238 -1.267512,-1.083738 -2.95625,-1.974988 -0.5875,0.97375 -1.2125,1.75625 -1.826238,2.372488 -1.273762,4.542512 -6.468762,6.024999 -6.772512,6.66625 -0.343738,0.728749 0,4.062502 -0.171237,4.793752 -0.172501,0.72875 -4.128763,2.00751 -4.301263,0.54501 -0.17125,-1.4575 -0.51625,-5.5225 -0.51625,-5.5225 -4.402488,-1.28625 -6.7575,-4.730012 -7.88375,-7.05 -0.16875,-0.148763 -0.33,-0.298762 -0.49,-0.45 -0.144987,0.45 -0.596237,1.813737 -0.93,2.213738 -0.3975,0.481262 -3.61625,1.817512 -5.73625,3.850012 -1.00375,0.962487 -5.31125,0.1025 -6.85,0.24125 -0.812488,0.07374 -2.0225,0.368737 -3.08625,0.6175 -0.01125,4.57375 0.0725,12.385 0.2,19.535 1.68875,-2.63625 4.96,-6.59001 5.5225,-7.34 0.721262,-0.96376 1.80625,-0.19125 2.34625,0.19749"
     id="path3081"
     inkscape:connector-curvature="0"
     style="fill:#21b5b0;fill-opacity:1;fill-rule:nonzero;stroke:none" /><path
     d="m 44.075362,151.85246 c 0,0 -10.088762,-5.405 9.18625,-8.28625 l -13.690012,1.26 c 0,0 -2.7025,6.48625 4.503762,7.02625"
     id="path3083"
     inkscape:connector-curvature="0"
     style="fill:#696767;fill-opacity:1;fill-rule:nonzero;stroke:none" /><path
     d="m 80.64285,152.39246 c -12.068738,-7.38625 7.02625,-3.60125 7.02625,-3.60125 l -14.771238,-3.425 c -0.900012,5.58375 7.744988,7.02625 7.744988,7.02625"
     id="path3085"
     inkscape:connector-curvature="0"
     style="fill:#696767;fill-opacity:1;fill-rule:nonzero;stroke:none" /><path
     d="m 20.6591,127.32746 c -1.11,1.895 -2.85125,3.44749 -4.54,4.14 -1.68875,0.7 -2.90375,-0.17375 -2.90375,-0.17375 -0.07,3.215 2.07125,3.48625 4.38,2.745 2.30625,-0.74 4.51875,-3.685 4.51,-4.5775 -0.01,-0.89375 -1.44625,-2.13375 -1.44625,-2.13375"
     id="path3087"
     inkscape:connector-curvature="0"
     style="fill:#cba569;fill-opacity:1;fill-rule:nonzero;stroke:none" /><path
     d="m 15.4241,130.38746 c 1.97375,-0.24625 4.5825,-3.43126 5.1625,-4.88125 0.58,-1.44876 -1.04375,-2.82875 -1.94,-2.8125 -1.01625,0.0262 -2.66,1.68375 -2.66,1.68375 -0.005,0.8175 -0.875,1.8225 -0.875,1.8225 0,0 -0.3425,-1.46125 -0.4675,-1.68625 -0.12125,-0.23126 -0.7675,-0.17125 -1.835,0.36 -1.065,0.53125 -1.38875,2.82125 -1.2375,3.475 0.1475,0.655 1.8775,2.28625 3.8525,2.03875"
     id="path3089"
     inkscape:connector-curvature="0"
     style="fill:#cba569;fill-opacity:1;fill-rule:nonzero;stroke:none" /><path
     d="m 23.35785,114.72496 c -1.37625,-0.88625 -4.72125,-2.44375 -8.53875,-5.6375 -0.98875,-0.83001 -4.27875,2.8425 -2.6875,5.02499 1.58875,2.18626 5.88125,1.645 7.035,3.00501 1.1525,1.3575 0.09375,2.695 0.09375,2.695 0,0 -0.71,-1.7025 -1.705,-1.9475 0,0 -4.285,-0.045 -5.06375,0.42 -0.78,0.45999 -5.0512505,2.1325 -5.5487505,2.30249 -0.50125,0.17501 0.13375,4.64126 2.84625,4.48626 1.8737505,-0.11 4.7812505,-2.48625 7.3087505,-3.36001 -0.305,-0.89124 0.30375,-1.6825 0.30375,-1.6825 0.19875,0.64 0.74875,1.10626 1.14875,1.37626 0.57875,-0.0263 1.1175,0.0675 1.58875,0.3725 2.755,1.78375 1.15125,4.785 1.15125,4.785 l 0.875,1.06375 c 0,0 2.61125,-1.6825 3.33625,-2.325 0.815,-0.72 1.345,-2.80125 1.3625,-5.15251 0.015,-2.34874 -2.33625,-4.6675 -3.50625,-5.42624"
     id="path3091"
     inkscape:connector-curvature="0"
     style="fill:#cba569;fill-opacity:1;fill-rule:nonzero;stroke:none" /><path
     d="m 27.6641,117.66122 c 0.0063,0.0137 0.01625,0.0237 0.0225,0.04 0.78625,1.9025 1.4975,6.2275 0.67375,9.55249 -0.09625,0.39501 1.74125,-0.32875 3.7925,-1.27 -0.04125,-1.67124 -0.08,-3.3825 -0.11625,-5.10874 l -0.3375,-9.775 c -2.4625,0.765 -5.9075,2.17499 -6.60125,2.59875 1.31125,0.8175 2.115,2.2975 2.56625,3.96251"
     id="path3093"
     inkscape:connector-curvature="0"
     style="fill:#ffffff;fill-opacity:1;fill-rule:nonzero;stroke:none" /><path
     d="m 115.0166,73.16871 c -0.3075,0.7125 -0.79125,2.245 -0.16125,3.06875 0.63125,0.825 2.0825,1.7775 2.92,1.54375 0.84125,-0.23375 5.2975,-4.70375 5.495,-5.975 0.20625,-1.27 -2.295,-3.54125 -3.21375,-3.1675 -0.9175,0.37625 -4.3975,3.04125 -5.04,4.53"
     id="path3095"
     inkscape:connector-curvature="0"
     style="fill:#cba569;fill-opacity:1;fill-rule:nonzero;stroke:none" /><path
     d="m 117.0066,68.87496 c 0,0 1.36125,-0.98 1.7875,-1.885 0.42875,-0.905 -1.845,-3.725 -3.0175,-3.04 -1.1825,0.685 -1.8275,1.56125 -1.8275,1.56125 0,0 3.035,1.72625 3.0575,3.36375"
     id="path3097"
     inkscape:connector-curvature="0"
     style="fill:#cba569;fill-opacity:1;fill-rule:nonzero;stroke:none" /><path
     d="m 114.80291,54.120685 c -1.23625,0.725 -5.78881,8.240525 -5.87006,8.430525 -0.045,0.09562 2.86036,2.754438 3.88951,2.10725 0.54789,-0.34455 2.14057,-1.559312 1.4926,-1.932812 -1.54997,-0.89345 0.13793,-0.488988 0.56363,-0.762425 0.4257,-0.273438 0.96481,-1.224763 1.42356,-1.7795 1.83501,-2.218975 2.47728,-3.397038 1.95788,-4.383575 -0.51941,-0.98655 -2.79858,-1.661963 -3.45712,-1.679463 z"
     id="path3099"
     inkscape:connector-curvature="0"
     sodipodi:nodetypes="ccssscsc"
     style="fill:#cba569;fill-opacity:1;fill-rule:nonzero;stroke:none" /><path
     d="m 94.8391,86.58246 c 0.20125,2.24 0.45,4.007488 0.45,4.007488 4.37375,0 9.20875,-3.12375 9.9375,-3.50875 0.73125,-0.387488 -3.09875,-2.514988 -4.7425,-4.448738 -1.63875,-1.93375 -1.09,-6.9625 -1.09,-6.9625 -1.82625,0.58 -4.65125,3.51 -4.65125,3.51 -0.02875,0.1825 -0.0475,0.385 -0.065,0.58625 0.0062,0.1275 0.0087,0.25625 0.02,0.38125 0.08,0.84 -0.01375,3.00375 0.14125,6.435"
     id="path3101"
     inkscape:connector-curvature="0"
     style="fill:#ffffff;fill-opacity:1;fill-rule:nonzero;stroke:none" /><path
     d="m 106.49035,82.29746 c 2.49375,-1.55375 2.8075,0.7475 4.26125,0.43875 1.45,-0.3075 5.665,-3.6675 4.90625,-3.8375 -0.7625,-0.17 -2.31375,-1.35875 -2.3875,-2.00625 -0.07,-0.64875 0.0625,-2.305 0.0625,-2.305 l -2.055,-0.66875 c -1.20125,2.05 -2.695,2.5625 -2.695,2.5625 0.81,-1.08375 0.57,-3.87875 0.57,-3.87875 -2.195,-1.96375 -1.90875,-4.42875 -1.90875,-4.42875 1.5875,2.04125 4.7725,4.0125 6.10875,4.31 1.32875,0.295 2.79875,-2.1175 2.08875,-3.54 -0.7125,-1.42375 -6.85375,-5.52875 -7.9275,-5.13625 -1.07125,0.39625 -3.45125,2.39375 -3.69,3.60375 -0.2425,1.2125 0.7,3.61125 0.53875,4.42 -0.15875,0.80875 -0.90375,1.81375 -2.78,3.46875 0,0 -0.6825,3.33 -0.35,4.6675 0.32875,1.3375 2.76625,3.88125 5.2575,2.33"
     id="path3103"
     inkscape:connector-curvature="0"
     style="fill:#cba569;fill-opacity:1;fill-rule:nonzero;stroke:none" /><path
     d="m 117.5741,108.32246 c 0,0 -0.88125,-0.995 -1.11625,-1.96125 -0.2325,-0.96 0.73125,-3.6875 1.7475,-4.1125 0.305,-0.13126 1.0125,-0.33875 1.87875,-0.55 -0.355,-0.57126 -1.8075,-2.93 -1.27125,-4.33625 0.0337,-0.08375 0.09,-0.178762 0.15625,-0.278763 -0.6,-0.221237 -1.32875,-0.371249 -1.81625,-0.45625 0.60375,1.40625 -0.39875,5.856263 -1.9675,6.861253 -1.64625,1.05251 -2.535,0.7075 -2.535,0.7075 0,0 -0.47,5.24876 -0.515,7.29751 -0.0463,2.0425 1.83625,3.22624 1.83625,3.22624 1.52375,0.82126 3.18375,-0.13249 3.18375,-0.13249 0,0 -0.9575,-1.49625 -0.93,-2.1825 0.0312,-0.685 -0.74375,-2.96875 1.34875,-4.0825"
     id="path3105"
     inkscape:connector-curvature="0"
     style="fill:#b3b5b7;fill-opacity:1;fill-rule:nonzero;stroke:none" /><path
     d="m 125.91785,95.06121 c -1.19875,-0.45375 -3.805,0.736237 -4.375,1.21625 -0.5675,0.47125 -1.34875,2.418738 -0.0413,3.24375 0.63875,0.403738 3.73875,1.53499 4.8,0.63249 1.0575,-0.901253 0.8175,-4.64124 -0.38375,-5.09249"
     id="path3107"
     inkscape:connector-curvature="0"
     style="fill:#cba569;fill-opacity:1;fill-rule:nonzero;stroke:none" /><path
     d="m 124.82285,102.45621 c -1.2025,-0.45375 -5.69375,0.86375 -6.26125,1.3375 -0.5675,0.47624 -1.34875,2.41999 -0.0387,3.24874 0.63375,0.4025 5.62,1.40626 6.6825,0.5075 1.05875,-0.89999 0.8175,-4.63999 -0.3825,-5.09374"
     id="path3109"
     inkscape:connector-curvature="0"
     style="fill:#cba569;fill-opacity:1;fill-rule:nonzero;stroke:none" /><path
     d="m 118.20535,109.80121 c -1.08875,0.48 -0.4525,3.62625 0.535,4.4425 0.98625,0.81 5.25,0.20125 5.9075,-0.6675 0.66125,-0.8675 -0.485,-3.80501 -0.485,-3.80501 -2.55375,0.30126 -4.86375,-0.44374 -5.9575,0.03"
     id="path3111"
     inkscape:connector-curvature="0"
     style="fill:#cba569;fill-opacity:1;fill-rule:nonzero;stroke:none" /><path
     d="m 109.8566,114.78246 0.47375,-4.33626 -1.8325,-1.39874 c 0,0 1.2925,-0.45751 1.79875,-0.77625 0.51,-0.32875 0.6,-4.42375 0.6,-4.42375 l -0.79,-1.69501 c 0,0 2.945,0.31876 3.985,0.02 1.03875,-0.30126 2.53,-4.37 1.08,-5.091262 -1.45,-0.724988 -7.8925,1.017512 -8.70125,1.72 -0.81,0.700012 -0.2425,5.652512 -0.8475,6.408762 -0.4225,0.52625 -1.76375,1.19374 -2.54,1.55624 0.88875,2.86876 1.81125,7.0125 1.9,9.14501 1.7125,0.49374 2.86125,1.66625 3.30625,1.89125 0.4825,0.24125 3.32375,-0.84125 3.32375,-0.84125 0,0 -1.27,-1.02125 -1.75625,-2.17875"
     id="path3113"
     inkscape:connector-curvature="0"
     style="fill:#cba569;fill-opacity:1;fill-rule:nonzero;stroke:none" /><path
     d="m 98.7141,117.4262 c 1.76,-0.0575 4.33625,-0.18124 4.64,-0.37124 0.505,-0.3275 -2.3275,-9.895 -2.775,-10.38125 -0.12375,-0.13251 -1.54625,-0.16626 -3.1025,-0.15875 l 1.10125,6.79749 c 0.08625,1.34626 0.13,2.72126 0.13625,4.11375"
     id="path3115"
     inkscape:connector-curvature="0"
     style="fill:#ffffff;fill-opacity:1;fill-rule:nonzero;stroke:none" /><path
     d="m 116.85285,92.584948 c -4.685,-6.486225 4.86375,-9.367488 4.86375,-9.367488 l 0.72,0.54 c -8.28625,3.062488 -5.04375,6.665 -5.04375,6.665 l 7.025,-4.323737 0.36125,1.081237 -7.92625,5.404988 z m 2.35875,-0.546238 c -0.29875,-0.68125 4.92125,-3.6275 6.24875,-4.36 -0.37125,-0.648762 -0.7775,-1.307512 -1.18125,-1.925 -1.565,0.9325 -5.69625,3.36375 -6.22125,3.337488 -0.645,-0.03125 -0.92375,-0.517488 -0.40375,-1.07375 0.435,-0.46625 4.3475,-2.919988 5.625,-3.717488 -0.61375,-0.83625 -1.1075,-1.39375 -1.2575,-1.34 -10.66125,3.901263 -5.875,9.03875 -4.1475,11.15625 1.73125,2.11875 8.27,-2.06625 8.9775,-2.853762 0.18375,-0.20375 -0.0263,-0.891238 -0.44,-1.779988 -1.4725,0.70125 -6.90625,3.23375 -7.2,2.55625"
     id="path3117"
     inkscape:connector-curvature="0"
     style="fill:#b3b5b7;fill-opacity:1;fill-rule:nonzero;stroke:none" /><path
     d="m 135.2891,81.19246 c -0.58375,0.2625 -7.68125,4.3625 -8.32875,4.88875 -0.645,0.52375 0.39625,1.615 0.75,1.49875 0.3525,-0.1125 8.04125,-4.4775 8.25125,-4.8375 0.21375,-0.35875 -0.41125,-1.6675 -0.6725,-1.55"
     id="path3119"
     inkscape:connector-curvature="0"
     style="fill:#b3b5b7;fill-opacity:1;fill-rule:nonzero;stroke:none" /><path
     d="m 137.24785,73.21496 c -0.185,-0.3275 -1.15125,0.18125 -1.38125,0.32875 -0.015,0.01 -0.0225,0.035 -0.0337,0.05125 l 1.37625,2.23625 -12.07,7.74625 -0.6875,-0.68875 c 0.14,0.5975 1.0225,1.95625 1.2875,1.97 0.325,0.015 12.91,-7.7075 13.1725,-7.98625 0.26,-0.2775 -1.47375,-3.33125 -1.66375,-3.6575"
     id="path3121"
     inkscape:connector-curvature="0"
     style="fill:#b3b5b7;fill-opacity:1;fill-rule:nonzero;stroke:none" /><path
     d="m 137.2091,75.83121 -1.37625,-2.23625 -0.065,-0.10625 0.0325,0.1675 0.32875,1.635 -11.69,7.55125 -0.0212,0.01375 0.0337,0.0325 0.6875,0.68875 12.07,-7.74625"
     id="path3123"
     inkscape:connector-curvature="0"
     style="fill:#ffffff;fill-opacity:1;fill-rule:nonzero;stroke:none" /><path
     d="m 124.41785,86.098723 -7.025,4.323737 c 0,0 -3.2425,-3.602512 5.04375,-6.665 l -0.72,-0.54 c 0,0 -9.54875,2.881263 -4.86375,9.367488 l 7.92625,-5.404988 -0.36125,-1.081237"
     id="path3125"
     inkscape:connector-curvature="0"
     style="fill:#ffffff;fill-opacity:1;fill-rule:nonzero;stroke:none" /><path
     d="M 58.486613,81.59621 57.40535,80.69496 c 0,0 -3.4225,0.36 -5.04375,2.70125 l 0.360013,0.72125 c 0,0 1.98125,-2.52125 5.765,-2.52125"
     id="path3127"
     inkscape:connector-curvature="0"
     style="fill:#ffffff;fill-opacity:1;fill-rule:nonzero;stroke:none" /><path
     d="M 74.197862,86.22371 C 70.415362,79.46996 64.7916,80.33496 64.7916,80.33496 l -0.36125,1.08 c 6.140012,-0.31375 9.115,3.77125 9.767512,4.80875"
     id="path3129"
     inkscape:connector-curvature="0"
     style="fill:#ffffff;fill-opacity:1;fill-rule:nonzero;stroke:none" /><path
     d="m 58.39035,86.99996 c 2.352512,-1.13375 4.491263,-0.225 5.131263,0 0.641249,0.22875 -2.137501,3.4025 -2.778751,3.4025 -0.6425,0 -3.055,-3.062512 -2.352512,-3.4025 z m -2.1725,3.5225 c 0.617512,0.322488 0.97625,0.79875 1.4125,1.28625 0.41625,0.485 0.837513,0.990013 1.1725,1.28375 0.222512,0.201238 0.3925,0.276238 0.398763,0.26875 0.198737,0.03999 0.652487,0.07249 1.16125,0.07124 1.2,0.005 2.868737,-0.149988 3.34625,-0.263738 l 0,-0.0012 c 0.02125,-0.01125 0.06499,-0.04375 0.118737,-0.09501 0.110013,-0.09999 0.26,-0.271238 0.425013,-0.477488 0.33,-0.41625 0.696237,-0.96 1.097487,-1.437512 0.273763,-0.314988 0.546263,-0.621238 0.982513,-0.843738 0.306237,-0.145012 0.72875,-0.295 1.359987,-0.680012 0.61625,-0.38125 1.37625,-0.967488 2.14375,-1.903738 0.248763,-0.305012 0.49875,-0.6625 0.745,-1.047512 -2.444987,-1.077542 -5.61125,-2.068792 -8.98375,-2.176292 -3.55375,-0.115 -6.50375,0.74375 -8.753737,1.83 -0.213763,0.463738 -0.5,0.9575 -0.85125,1.3825 1.115,1 2.488737,1.9575 4.224987,2.80375"
     id="path3131"
     inkscape:connector-curvature="0"
     style="fill:#cba569;fill-opacity:1;fill-rule:nonzero;stroke:none" /><path
     d="m 49.35035,79.34246 c -0.04375,0.1525 -0.095,0.2925 -0.1625,0.39875 0,0 1.260013,1.3775 2.375013,2.76375 1.9225,-1.57375 4.174987,-3.08125 6.399987,-3.89625 0,0 1.28125,2.26875 2.780013,2.49375 1.497487,0.22875 3.42,-2.04 3.42,-2.04 0,0 3.42125,-0.0012 5.561237,0.905 0.76875,0.32875 1.748763,1.07375 2.770013,2.06875 0.209987,-0.8275 0.379987,-1.75375 0.517487,-2.7625 -1.488738,-0.93125 -4.15625,-2.715 -6.923737,-2.61875 -2.436263,0.08375 -1.710013,-3.7175 -5.131263,-3.7175 -2.15,0 -2.8725,3.2025 -4.49125,3.40375 -3.429987,0.4225 -5.67875,1.9275 -7.115,3.00125"
     id="path3133"
     inkscape:connector-curvature="0"
     style="fill:#cba569;fill-opacity:1;fill-rule:nonzero;stroke:none" /><path
     d="m 60.64785,80.15371 c 0,0 -1.2625,-1.98125 -0.721237,-5.94375 0,0 -3.061263,4.6825 0.721237,5.94375"
     id="path3135"
     inkscape:connector-curvature="0"
     style="fill:#ffffff;fill-opacity:1;fill-rule:nonzero;stroke:none" /><path
     d="m 38.18285,93.676197 c 0.998762,0.14125 4.46875,0.01251 6.0425,-0.877475 3.815,-2.157525 4.46125,-3.790025 4.46125,-3.790025 0,0 -3.777488,-0.9 -4.12875,-3.464987 l -3.7675,4.31 -0.0725,-3.4225 c 0,0 -3.07125,1.537487 -3.4175,2.922487 0,0 0.93125,-4.187487 2.593762,-4.842487 1.662488,-0.655 4.09875,-1.2025 4.551238,-0.78 0.45875,0.42625 2.46875,3.226237 3.96875,3.439987 1.496263,0.213763 2.86125,-1.203737 2.95,-1.911237 0.09,-0.70625 -3.04375,-4.025 -3.04375,-4.025 0,0 -3.17,0.4175 -5.18875,0.30875 -2.0175,-0.10875 -2.34375,0.76625 -2.34375,0.76625 l -1.7475,-0.52625 c 0,0 0.695013,-0.77625 1.792513,-1.165 1.426237,-0.5075 5.382499,-0.21125 6.248749,-0.5725 0.797488,-0.33125 1.556238,-3.97625 -0.74875,-4.48375 -2.305,-0.51 -8.15875,0.26875 -9.360012,1.715 -1.19625,1.4425 -5.02125,7.54 -6.00875,8.65625 -0.9875,1.115 -1.12,2.174987 -0.90375,3.10375 0.22,0.928738 2.455,4.66125 3.66375,4.473762 1.21,-0.185012 3.462512,0.02249 4.45875,0.164975"
     id="path3137"
     inkscape:connector-curvature="0"
     style="fill:#cba569;fill-opacity:1;fill-rule:nonzero;stroke:none" /><path
     d="m 31.68535,100.63621 -3.6075,-1.3775 3.56875,-0.943763 c -0.01625,-0.804987 -0.03,-1.5325 -0.045,-2.176237 -0.79,-0.30375 -4.63375,-5.287513 -3.54625,-8.64625 0.27375,-0.83875 0.5775,-1.52125 0.90125,-2.11125 -5.36875,2.0925 -8.9475,5.1325 -9.305,9.692512 -0.0525,0.653726 -0.095,1.203738 -0.1325,1.682488 -0.45375,6.35375 7.1075,9.78 12.2475,8.74875 -0.0275,-1.75 -0.05375,-3.39251 -0.08125,-4.86875"
     id="path3139"
     inkscape:connector-curvature="0"
     style="fill:#ffffff;fill-opacity:1;fill-rule:nonzero;stroke:none" /><path
     d="m 60.832863,62.33121 c -23.082513,0.6475 -31.451263,3.725 -33.835013,6.4325 -0.57625,0.65375 -0.8075,1.28875 -0.8075,1.85875 2.71625,1.47 6.11125,3.8125 9.1625,5.1025 3.0525,-2.06625 10.01625,-1.7875 12.27375,-1.20125 1.805,-1.0075 4.545,-3.07625 13.5425,-3.16 10.6925,-0.1025 13.69375,4.23375 14.033762,5.39625 0.236238,0.8075 13.771238,-2.135 19.304988,-6.79875 0.28,-0.235 0.54625,-0.475 0.7825,-0.72 0,0 -3.645,-7.77375 -34.457487,-6.91"
     id="path3141"
     inkscape:connector-curvature="0"
     style="fill:#edcb04;fill-opacity:1;fill-rule:nonzero;stroke:none" /><path
     d="m 72.639112,55.45871 c -1.188762,-1.6525 -4.2425,-5.005 -9.512512,-5.11 -4.76625,-0.09375 -8.81375,2.9075 -10.91625,4.835 3.862512,-0.79125 11.310012,-1.6775 20.428762,0.275"
     id="path3143"
     inkscape:connector-curvature="0"
     style="fill:#f7e78b;fill-opacity:1;fill-rule:nonzero;stroke:none" /><path
     d="m 61.79285,58.95246 c 4.885013,0.165 10.3525,0.53875 16.50875,1.20625 0,0 -43.63625,-3.41125 -53.45375,5.90375 0,0.09625 0,0.2 0,0.29625 3.46,-2.0525 10.9425,-4.3825 27.1225,-5.3325 32.85125,-1.93 41.67375,4.545 43.635,6.62125 l 0.34,-2.23375 c 0,0 -2.46625,-3.67375 -17.81125,-5.48125 -3.48,-0.41125 -7.618737,-0.72625 -12.547487,-0.88 -1.28375,-0.065 -2.543763,-0.09125 -3.793763,-0.1"
     id="path3145"
     inkscape:connector-curvature="0"
     style="fill:#f7e78b;fill-opacity:1;fill-rule:nonzero;stroke:none" /><path
     d="m 78.3016,60.15871 c -6.15625,-0.6675 -11.623737,-1.04125 -16.50875,-1.20625 -3.1425,-0.10625 -6.0375,-0.12375 -8.6975,-0.06875 -22.25125,0.4675 -28.29625,5.9575 -28.29625,5.9575 l 0,1.2625 c 0.015,-0.015 0.03375,-0.02625 0.04875,-0.04125 9.8175,-9.315 53.45375,-5.90375 53.45375,-5.90375"
     id="path3147"
     inkscape:connector-curvature="0"
     style="fill:#ffffff;fill-opacity:1;fill-rule:nonzero;stroke:none" /><!-- Spinning World --><defs
     id="defs47"><clipPath
       id="clip"><ellipse
         cx="150"
         cy="205"
         id="ellipse50"
         rx="140"
         ry="140"
         sodipodi:cx="150"
         sodipodi:cy="205"
         sodipodi:rx="140"
         sodipodi:ry="140"
         style="fill:none;stroke:#444444" /></clipPath></defs><g
     id="g52"
     transform="translate(90.00005,-6.05)"><g
       clip-path="url(#clip)"
       id="g54"
       transform="scale(0.17,0.17)"><g
         id="layer1"
         transform="translate(50,200)"><rect
           height="280"
           id="rect7941"
           style="fill:#2c5aa0;fill-opacity:1;stroke:none"
           width="1088.5714"
           x="-208.84352"
           y="-136.98621" /><path
           d="m -364.55782,143.0138 c 26.88089,-0.68214 39.39636,-13.61163 68.09204,-10 35.94465,0.26796 73.14752,-2.91548 106.46471,8.57143 39.69845,1.05765 79.46015,-1.65941 118.459725,-5.39572 24.258847,-7.88582 66.7565201,-3.19549 97.284589,-7.46143 46.231106,-3.73076 94.847746,-8.75976 139.253126,2.85715 56.58896,2.89217 113.77507,0.79385 170.63415,1.42857 23.95731,-1.92846 56.15252,-10.94324 74.52984,2.85714 9.94824,4.6754 52.89928,8.19972 25.49705,12.85714 -186.16395,3.48503 -373.075259,-0.006 -559.49699,1.88403 -55.12075,1.56898 -109.37859,21.29321 -162.26576,28.11597 -19.9618,-19.78319 -47.27854,-24.09591 -72.56855,-28.57142 -1.96131,-2.38095 -3.92262,-4.76191 -5.88393,-7.14286 z"
           id="path7943"
           style="fill:#ffffff;stroke:#000000;stroke-width:1.17171597px;stroke-linecap:butt;stroke-linejoin:miter;stroke-opacity:1"
           inkscape:connector-curvature="0" /><path
           d="m 467.85325,142.37651 c 26.88089,-0.68214 39.39636,-13.61163 68.09204,-10 35.94464,0.26796 73.14752,-2.91548 106.4647,8.57143 39.69845,1.05765 79.46016,-1.65941 118.45973,-5.39572 24.25885,-7.88582 66.75652,-3.19549 97.28459,-7.46143 46.2311,-3.73075 94.84774,-8.75977 139.2531,2.85715 56.58899,2.89217 113.77509,0.79385 170.63419,1.42857 23.9573,-1.92845 56.1525,-10.94325 74.5298,2.85714 9.9482,4.67538 52.8992,8.1997 25.4971,12.85714 -186.164,3.48503 -373.07528,-0.006 -559.49701,1.88403 -55.12076,1.56898 -109.37859,21.2932 -162.26576,28.11597 -19.9618,-19.78319 -47.27854,-24.09591 -72.56855,-28.57142 -1.96131,-2.38095 -3.92262,-4.76191 -5.88393,-7.14286 z"
           id="path7943-0"
           style="fill:#ffffff;stroke:#000000;stroke-width:1.17171597px;stroke-linecap:butt;stroke-linejoin:miter;stroke-opacity:1"
           inkscape:connector-curvature="0" /><path
           d="m -158.84353,-99.843341 c -8.00827,0.981382 -15.48742,3.902264 -20.85327,10.710204 -3.14361,3.416391 -3.71148,10.300983 -5.31059,9.260015 -2.79098,9.75581 -2.30185,21.845179 8.30672,25.744067 2.02463,2.697132 5.19156,1.762716 3.57142,4.285714 4.64722,3.141126 9.07446,5.935788 9.79911,8.281252 0.98686,-0.302948 -0.40213,9.594652 -4.62985,10.961923 -4.4945,2.540957 -3.59225,4.845591 -6.59783,6.471115 0.42493,4.530745 -1.08662,9.940778 1.38216,13.604875 4.50203,0.408652 5.66617,9.1218076 13.69946,6.4766335 6.41404,1.1680104 14.09863,-2.4614389 14.36017,-0.1779751 1.33318,6.0227128 0.22247,12.5058807 0.55821,18.6678866 -4.21584,3.430086 -6.56593,11.18612 -12.14285,15.71429 -5.12143,6.925595 -9.87816,13.635416 -10.71429,22.85714 1.36364,9.858548 -4.88299,19.466208 -11.95394,25.262029 -4.03885,7.914807 -7.21215,16.185022 -9.47463,24.737972 -2.97261,5.70909 -0.77029,12.96771 6.84893,12.85715 9.17688,-0.0236 18.42129,0.0373 27.53961,-0.007 3.93165,-4.5149 10.41515,-2.06522 14.50139,-7.37255 7.65732,-4.20084 16.11139,-6.72019 21.11006,-14.049201 6.74356,-5.628809 10.26791,-16.146169 15.98849,-21.628805 0.55384,-2.729013 2.68044,-10.872052 4.011514,-15.514045 4.999128,-7.582245 13.397471,-12.920857 18.57143,-20 7.09961,-1.146156 7.21895,-11.932753 3.976985,-16.735879 -6.667279,-6.968459 -10.439032,-16.1069738 -17.501104,-22.6154689 -3.775911,-1.443641 -8.519045,-0.2652641 -12.695925,-0.6486525 -4.47562,-1.0670279 -6.89135,6.1318577 -2.025,0.9052214 5.47548,-2.010271 9.866078,-6.2986398 12.530764,-9.476651 3.182369,-4.319853 9.043462,-4.507021 14.244659,-4.28572 3.574445,-0.819988 17.33814,-2.302393 15.755336,-1.42857 -4.910766,2.174024 7.260398,-0.144432 2.734355,5.932261 2.304518,1.6202983 5.918161,1.5861969 6.55136,6.2105986 4.486308,7.3575313 5.736281,-5.2913796 5.661984,-9.3073786 5.634573,-5.965554 3.53156,-11.973155 8.623731,-17.83548 3.108295,-5.884212 11.092968,-9.175362 12.142855,-14.999998 -2.662604,-7.624132 -11.633523,-14.400117 -15.780389,-20.017825 -6.714419,-5.200287 0.733725,-12.708931 7.482361,-11.410747 5.470086,-0.189394 11.627591,0.918376 16.14147,-2.175936 5.501518,0.969386 9.459944,-9.221606 4.26614,-11.693513 -0.885483,-4.671713 -7.738974,-4.337113 -12.109582,-7.559122 -7.132494,-0.0029 -14.296152,-0.0027 -21.42857,0 -4.571168,3.686195 -10.242641,2.789891 -15.69376,2.857143 -9.053964,-0.0082 -18.117536,0.01168 -27.16338,0 -9.037814,-3.697332 -17.875094,-6.875432 -27.142864,-8.571432 -3.80422,0.0162 -7.66069,-0.0218 -11.42857,0 2.33965,5.03133 -10.64893,1.09841 -14.28571,4.28572 -6.5555,-0.0108 4.00742,0.13391 -2.80986,1.20213 -2.84594,0.620183 -5.74217,0.273049 -8.61871,0.226439 z"
           id="path7974"
           style="fill:#44aa00;stroke:#000000;stroke-width:1px;stroke-linecap:butt;stroke-linejoin:miter;stroke-opacity:1"
           inkscape:connector-curvature="0" /><path
           d="m 55.442179,40.156656 c -4.75976,-0.006 -9.54049,0.0083 -14.28571,0 -3.27644,-6.20105 -9.77756,-8.01802 -13.57143,-14.28571 -1.70953,-4.55204 -5.9015,-6.80395 -7.94996,-9.9331 -1.94271,-3.95859 -1.32452,-9.1362303 -1.33575,-13.9540603 -0.43613,-2.66457998 1.31794,-9.37244 1.93728,-5.90455 0.18422,-5.39551 6.74546,-6.6202797 8.36809,-8.8918297 6.44318,-2.00192 10.8258,-9.02648 16.83748,-11.31646 1.6961,-6.27042 6.39356,-7.35333 11.86048,-8.57143 10.80704,8.8e-4 21.6256,-0.0012 32.42524,0 4.84794,2.61408 10.515211,7.84955 13.967791,9.9053 1.84789,3.40051 10.96841,2.06897 14.65355,-0.46523 7.0041,-3.92708 15.23016,-5.06982 22.78742,-7.75048 5.36747,0.53427 8.92079,-2.24696 14.15043,-1.72013 5.58527,-1.03515 11.55046,0.16108 10.8363,6.47281 0.96567,5.27775 0.66412,11.31856 3.71909,16.3924597 -0.58787,8.51177 2.38388,16.24699 1.45153,24.9118203 -0.69081,7.00601 -10.09322,9.0512 -10.45762,16.18464 -2.84649,5.32155 -6.40509,10.62449 -8.25135,16.06881 -1.99789,3.82394 -4.12803,8.86125 -4.72015,13.41789 3.90355,-7.30098 -4.25689,4.10653 -2.42271,7.44592 -0.0125,10.66403 0.0181,21.3341 0,31.993334 -2.76792,3.73268 -2.98547,6.9642 -7.2413,8.66988 -2.54312,2.12833 -3.24312,4.62981 -4.92041,5.53598 -2.17651,0.11595 -3.46826,2.0966 -0.86546,1.49512 -5.97915,1.61433 -16.48627,4.26046 -19.82997,-2.12955 -2.14675,-4.2527 -3.42475,-8.91385 -2.85714,-14.302394 -0.0621,-5.9469 0.10694,-11.89953 0,-17.84047 -1.34125,-4.08134 -2.5722,1.24512 -3.89884,-4.09719 -4.64377,-1.95313 -4.534,-9.42294 -7.529731,-7.33138 -0.71658,-1.85589 2.163871,-1.99897 -2.29611,-2.93555 -1.92109,1.32545 -6.04837,-1.30407 -2.53099,-1.49386 -3.84333,-1.36671 -6.92312,-3.06062 -11.18625,-2.71344 -3.36164,0.10415 -6.80135,0.23328 -9.39557,-1.31647 -1.71618,-3.17098 -1.96881,-6.74414 -3.16582,-9.29493 -0.36965,-7.22843 -9.57635,-8.28468 -14.28241,-12.24575 z"
           id="path7976"
           style="fill:#44aa00;stroke:#000000;stroke-width:1px;stroke-linecap:butt;stroke-linejoin:miter;stroke-opacity:1"
           inkscape:connector-curvature="0" /><path
           d="m 172.58504,91.585226 c -0.006,-4.82204 0.0117,-9.64465 -0.009,-14.46634 -0.83652,-1.63742 1.88662,-1.95966 1.39089,-3.42425 -0.52956,-1.55735 2.3185,0.22323 1.47018,-1.55901 0.14049,-1.47039 1.96692,-2.30343 2.86195,-3.40754 1.24837,0.29673 2.69594,-0.39264 2.80002,-1.82366 -0.30229,-1.87329 1.50233,-2.72973 3.1033,-2.45134 1.58851,0.39275 1.36005,2.40709 1.28782,3.67233 -0.1085,3.21925 -0.0192,6.44653 -0.0483,9.669 -0.0581,1.73972 0.24346,3.49198 0,5.21939 -0.90702,0.79117 -1.80042,1.55309 -1.42857,2.85714 -0.90701,0.79117 -1.80043,1.55309 -1.42857,2.85714 -1.2144,0.94586 -1.9293,2.19353 -2.17937,3.72393 -0.96898,1.35213 -2.87287,0.08673 -4.02311,-0.40806 -1.1572,-0.57685 -2.89454,-1.58527 -3.94561,-0.29398 -0.98048,1.36656 0.0484,3.04278 0.60959,4.36201 0.49485,1.24571 1.39765,2.70595 0.96707,4.044674 -0.68328,0.0453 -2.01941,-0.350064 -1.36938,0.91738 0.0838,1.20895 -1.44476,0.31972 -2.17853,0.51119 -1.20302,-0.13609 -2.43658,0.46658 -3.59495,0 -0.0746,-1.05866 -0.39792,-2.626584 0.48642,-3.562834 1.60442,-2.25516 3.50127,-4.27876 5.22787,-6.43717 z"
           id="path7978"
           style="fill:#5aa02c;stroke:#000000;stroke-width:1px;stroke-linecap:butt;stroke-linejoin:miter;stroke-opacity:1"
           inkscape:connector-curvature="0" /><path
           d="m 114.01361,-41.271913 c -8.09541,-0.02784 -16.193311,0.04303 -24.285711,0 -7.03192,-2.444962 -13.64734,-5.912979 -20,-10 -7.24181,-0.588871 -14.74459,-0.257265 -18.57143,6.428572 -6.16356,3.493662 -14.56623,7.299057 -23.62373,6.554837 -1.36033,-5.770942 -0.35923,-13.482119 -0.66199,-20.126266 6.43942,-7.832099 2.66606,-27.99762 16.68975,-24.285714 6.06709,0.378564 12.73085,-0.821945 18.31026,0.714286 11.89737,-0.240879 10.72558,10.157827 20.01702,12.257255 8.18816,0.602824 17.08781,-0.15719 20.697261,-4.400112 0.0506,-1.925156 8.59403,-7.015477 8.75,-9.107143 0.61504,-7.435866 -1.3302,-11.441216 -4.6245,-16.313746 -6.38687,-8.856816 -20.816421,1.02398 -29.839791,1.13517 -11.26925,4.770058 -23.21673,-14.998376 -10.30052,-18.906016 6.59218,-6.18929 10.44505,-11.31528 20.07397,-9.6654 7.91539,-0.20054 15.961881,0.79563 23.559011,-1.51435 10.26098,-0.0327 19.27205,-3.52734 29.94844,-2.77137 8.75013,-0.9618 15.34673,1.10892 18.14768,7.14286 7.6619,4.79355 5.08003,9.47972 12.30543,11.42857 14.13686,1.57347 27.43765,-4.63664 41.26316,-5.74441 24.43852,-2.43638 49.13465,-1.02286 73.71273,-1.39845 29.13895,0.20667 58.3294,-0.43689 87.43171,0.36652 11.96691,1.79911 22.64544,6.30097 34.83385,5.34777 6.99418,0.93893 16.02408,-2.79832 19.17097,3.94753 3.46447,7.03454 8.63809,19.488929 9.10621,29.637595 3.51384,8.914453 5.67719,19.18478 0.80621,29.28915 -3.30114,10.106735 -8.69308,15.708961 -11.48742,24.268571 -3.32463,9.85769 -5.87454,20.3295297 -14.28571,27.14285972 -8.55457,-0.46436 -17.59747,0.95615998 -25.8543,-0.78429 -6.00186,-2.44661002 -5.44672,-12.33837972 -12.71713,-13.50141972 -4.93468,-6.28785 -15.90935,-8.32237 -24.95023,-11.52932 -14.89188,-2.15457 -15.99296,19.7912297 -25.04977,28.6721797 -4.02785,6.67051 -10.10514,48.4108493 -18.11831,47.1428493 -13.61099,4.32125 -26.16244,-28.04511 -31.09989,-32.21052 2.84417,-0.4127 -4.44105,-31.318852 -7.92465,-32.075192 -8.46221,-5.01495 -7.13776,-20.813457 -16.95436,-13.045647 -4.77856,9.44587 -23.69831,26.38145682 -35.90279,27.33136682 -7.55245,2.71782998 -4.82312,-6.23750712 -12.85714,-5.71428712 -3.63722,-7.2751997 -9.19023,-11.9025897 -14.28572,-14.2857197 -4.136,0.20222 -9.27543,-5.81615 -12.83589,-3.27604 -2.30893,-8.29744 -7.77329,-8.38391 -14.30696,-11.00967 -6.22217,-1.86937 -14.87333,-6.184285 -24.05917,-4.28572 -6.96932,-0.19274 -13.94391,1.09558 -20.22655,-2.857139 z"
           id="path7980"
           sodipodi:nodetypes="ccccccccccccccccccccccccccccccccccccccccccc"
           style="fill:#44aa00;stroke:#000000;stroke-width:1px;stroke-linecap:butt;stroke-linejoin:miter;stroke-opacity:1"
           inkscape:connector-curvature="0" /><path
           d="m 45.442179,-95.557624 c -0.0031,-4.792636 0.0062,-9.585266 -0.0047,-14.377896 -0.375999,-0.69056 -0.119829,-1.67941 0.793868,-1.61793 1.368577,-0.28754 2.895175,0.43953 3.496532,1.71011 0.197723,1.94896 -0.0518,3.90852 0.03526,5.85887 -0.02395,0.35394 0.51015,1.36851 -0.196798,1.14264 -0.13039,-0.30411 -0.05272,-1.12705 0.170731,-1.12895 0.04939,0.98831 0.449984,2.09537 -0.162511,2.9932 -1.091286,2.011724 -2.770547,3.602331 -4.132382,5.419956 z"
           id="path7982"
           style="fill:#5aa02c;stroke:#17280b;stroke-width:1px;stroke-linecap:butt;stroke-linejoin:miter;stroke-opacity:1"
           inkscape:connector-curvature="0" /><path
           d="m 372.58504,104.44237 c 3.80793,-0.005 7.63495,0.007 11.42857,0 3.14854,-2.78757 7.30212,-4.94871 11.41296,-5.87188 3.24775,0.0248 6.54129,0.40333 9.76952,-0.02209 -0.12649,2.64321 0.45888,8.62666 3.0186,8.15611 4.17742,0.0281 5.335,5.34733 9.33436,5.17306 5.71987,-0.35111 11.45957,-0.34236 17.18629,-0.20243 2.54822,-1.25294 7.28582,-1.74962 7.755,-4.05771 3.13345,-0.0524 2.28267,-4.56179 6.14143,-4.29699 3.5865,-0.0281 5.51401,-3.63658 8.52799,-5.06942 -0.37834,-3.92974 4.63415,-5.24569 3.99671,-8.85878 -0.31339,-3.77403 1.20311,-8.02633 -1.11066,-11.36219 -0.82189,-2.49401 -0.0898,-5.25187 -0.31791,-7.87339 0.57296,-3.33789 -0.52839,-6.4913 -1.75089,-9.53836 -1.84295,-5.37606 -3.53308,-10.82725 -5.39197,-16.17593 -4.24869,-1.8697 -3.28923,-10.18613 -8.82624,-8.57143 -3.63748,-0.54114 -6.84897,0.28564 -9.74519,1.42858 0.69018,3.76672 -6.26004,2.87758 -4.28571,7.14285 -3.75404,2.5495 -4.25085,6.57208 -7.76007,9.29265 -2.52611,3.85887 -7.50978,1.62174 -11.32098,2.13592 -9.35167,0.0044 -18.72574,-0.006 -28.06181,0 -4.37189,1.32313 -8.27409,3.9157 -12.83041,4.94182 -3.69769,2.08583 -3.78936,7.43006 -7.47069,9.8673 -2.09426,4.35822 -0.76257,9.41863 -1.24652,14.09047 -0.5064,3.0224 2.0624,5.18651 1.94401,8.16084 0.34406,2.40843 0.68812,4.81686 1.03218,7.22529"
           id="path7989"
           style="fill:#5aa02c;stroke:#000000;stroke-width:1px;stroke-linecap:butt;stroke-linejoin:miter;stroke-opacity:1"
           inkscape:connector-curvature="0" /><path
           d="m 599.7279,-99.843341 c -8.00827,0.981382 -15.48742,3.902264 -20.85327,10.710204 -3.14361,3.416391 -3.71148,10.300983 -5.31059,9.260015 -2.79098,9.75581 -2.30185,21.845179 8.30672,25.744067 2.02463,2.697132 5.19156,1.762716 3.57142,4.285714 4.64722,3.141126 9.07446,5.935788 9.79911,8.281252 0.98686,-0.302948 -0.40213,9.594652 -4.62985,10.961923 -4.4945,2.540957 -3.59225,4.845591 -6.59783,6.471115 0.42493,4.530745 -1.08662,9.940778 1.38216,13.604875 4.50203,0.408652 5.66617,9.1218076 13.69946,6.4766335 6.41404,1.1680104 14.09863,-2.4614389 14.36017,-0.1779751 1.33318,6.0227128 0.22247,12.5058807 0.55821,18.6678866 -4.21584,3.430086 -6.56593,11.18612 -12.14285,15.71429 -5.12143,6.925595 -9.87816,13.635416 -10.71429,22.85714 1.36364,9.858548 -4.88299,19.466208 -11.95394,25.262029 -4.03885,7.914807 -7.21215,16.185022 -9.47463,24.737972 -2.97261,5.70909 -0.77029,12.96771 6.84893,12.85715 9.17688,-0.0236 18.42129,0.0373 27.53961,-0.007 3.93165,-4.5149 10.41515,-2.06522 14.50139,-7.37255 7.65732,-4.20084 16.11139,-6.72019 21.11006,-14.049201 6.74356,-5.628809 10.26791,-16.146169 15.98849,-21.628805 0.55384,-2.729013 2.68044,-10.872052 4.01151,-15.514045 4.99913,-7.582245 13.39747,-12.920857 18.57143,-20 7.09961,-1.146156 7.21895,-11.932753 3.97699,-16.735879 -6.66728,-6.968459 -10.43903,-16.1069738 -17.50111,-22.6154689 -3.77591,-1.443641 -8.51904,-0.2652641 -12.69592,-0.6486525 -4.47562,-1.0670279 -6.89135,6.1318577 -2.025,0.9052214 5.47548,-2.010271 9.86608,-6.2986398 12.53076,-9.476651 3.18237,-4.319853 9.04346,-4.507021 14.24466,-4.28572 3.57445,-0.819988 17.33814,-2.302393 15.75534,-1.42857 -4.91077,2.174024 7.2604,-0.144432 2.73435,5.932261 2.30452,1.6202983 5.91816,1.5861969 6.55136,6.2105986 4.48631,7.3575313 5.73628,-5.2913796 5.66199,-9.3073786 5.63457,-5.965554 3.53156,-11.973155 8.62373,-17.83548 3.10829,-5.884212 11.09297,-9.175362 12.14285,-14.999998 -2.6626,-7.624132 -11.63352,-14.400117 -15.78039,-20.017825 -6.71442,-5.200287 0.73373,-12.708931 7.48236,-11.410747 5.47009,-0.189394 11.6276,0.918376 16.14147,-2.175936 5.50152,0.969386 9.45995,-9.221606 4.26614,-11.693513 -0.88548,-4.671713 -7.73897,-4.337113 -12.10958,-7.559122 -7.13249,-0.0029 -14.29615,-0.0027 -21.42857,0 -4.57117,3.686195 -10.24264,2.789891 -15.69376,2.857143 -9.05396,-0.0082 -18.11753,0.01168 -27.16338,0 -9.03781,-3.697332 -17.87509,-6.875432 -27.14286,-8.571432 -3.80422,0.0162 -7.66069,-0.0218 -11.42857,0 2.33965,5.03133 -10.64893,1.09841 -14.28571,4.28572 -6.5555,-0.0108 4.00742,0.13391 -2.80986,1.20213 -2.84594,0.620183 -5.74217,0.273049 -8.61871,0.226439 z"
           id="path8010"
           style="fill:#44aa00;stroke:#000000;stroke-width:1px;stroke-linecap:butt;stroke-linejoin:miter;stroke-opacity:1"
           inkscape:connector-curvature="0" /><animateTransform
           attributeName="transform"
           begin="0s"
           dur="0.45s"
           from="215 200"
           repeatCount="indefinite"
           to="-515 200"
           type="translate"
           id="animateTransform82" /></g><ellipse
         cx="150"
         cy="205"
         d="M 290,205 C 290,282.31986 227.31986,345 150,345 72.680135,345 10,282.31986 10,205 10,127.68014 72.680135,65 150,65 c 77.31986,0 140,62.68014 140,140 z"
         id="ellipse67"
         rx="140"
         ry="140"
         sodipodi:cx="150"
         sodipodi:cy="205"
         sodipodi:rx="140"
         sodipodi:ry="140"
         style="fill:none;stroke:#444444;stroke-width:12" /></g><animateTransform
       attributeName="transform"
       begin="0s"
       dur="0.5s"
       repeatCount="indefinite"
       type="translate"
       values="89 -7;93 -6;89 -7"
       id="animateTransform85" /></g></svg>