<?xml version="1.0" encoding="UTF-8" standalone="no"?>
<svg
   xmlns:dc="http://purl.org/dc/elements/1.1/"
   xmlns:cc="http://creativecommons.org/ns#"
   xmlns:rdf="http://www.w3.org/1999/02/22-rdf-syntax-ns#"
   xmlns:svg="http://www.w3.org/2000/svg"
   xmlns="http://www.w3.org/2000/svg"
   xml:space="preserve"
   height="90.24942"
   width="90.037827"
   version="1.1"
   id="svg3025"><metadata
     id="metadata3031"><rdf:RDF><cc:Work
         rdf:about=""><dc:format>image/svg+xml</dc:format><dc:type
           rdf:resource="http://purl.org/dc/dcmitype/StillImage" /><dc:title></dc:title></cc:Work></rdf:RDF></metadata><defs
     id="defs3029"><clipPath
       id="clipPath3043"
       clipPathUnits="userSpaceOnUse"><path
         id="path3045"
         d="M 0,0 372,0 372,169 0,169 0,0 Z" /></clipPath><clipPath
       id="clipPath3153"
       clipPathUnits="userSpaceOnUse"><path
         id="path3155"
         d="m 0,0.05999756 372,0 L 372,168.912 0,168.912 0,0.05999756 Z" /></clipPath></defs><g
     transform="matrix(1.25,0,0,-1.25,-77.086359,150.08398)"
     id="g3035"><g
       id="g3037" /><g
       transform="matrix(1.3306422,0,0,1.3306422,-18.956224,-16.94712)"
       id="g3773"><rect
         style="color:#000000;display:inline;overflow:visible;visibility:visible;fill:#231f20;fill-opacity:1;fill-rule:evenodd;stroke:none;stroke-width:0;marker:none;enable-background:accumulate"
         id="rect3771"
         width="67.66494"
         height="67.823959"
         x="75.739098"
         y="82.539307"
         transform="matrix(0.8,0,0,-0.8,0,169)" /><path
         d="m 95.58501,99.84 c 0.03699,-0.066 0.07699,-0.121 0.113,-0.18799 0,0 -0.03701,0.069 -0.113,0.18799"
         style="fill:#ffffff;fill-opacity:1;fill-rule:nonzero;stroke:none"
         id="path3061" /><path
         d="m 112.571,78.70901 c -0.124,1.28999 -0.256,2.52099 -0.386,3.71899 -1.418,-2.112 -4.506,-6.124 -5.067,-6.968 -0.722,-1.085 -1.734,-2.31799 -2.455,-2.31799 -0.724,0 -4.192,5.722 -5.347,6.96099 -1.15899,1.238 -2.31299,3.247 -2.60299,2.474 C 96.423,81.802 93.679,77.164 92.66601,76.235 91.65601,75.30701 90.5,74.068 89.923,74.068 c -0.579,0 -2.023,0.307 -3.468,2.32 -1.44501,2.012 -2.747,4.64301 -3.322,4.332 -0.58,-0.31 -2.169,-4.17499 -3.036,-5.723 -0.866,-1.54999 -2.02299,-3.561 -2.892,-3.561 -0.865,0 -1.875,2.477 -3.322,3.097 -1.445,0.618 -4.19,5.103 -4.76799,4.951 C 68.65,79.36 64.917,74.37901 63.479,72.437 c 0.067,-3.012 -0.403373,-8.587051 -0.329373,-10.172051 0.266,-5.669 0.06024,-10.899777 0.06024,-10.899777 0,0 49.274973,-0.04576 49.274973,-0.04576"
         style="fill:#ce6111;fill-opacity:1;fill-rule:nonzero;stroke:none"
         id="path3079" /><path
         d="M 69.693,82.26601 C 70.12601,81.956 75.90601,74.997 76.774,74.997 c 0.866,0 4.335,8.19801 5.92501,8.663 1.58799,0.46501 1.29899,-0.46499 1.87699,-0.928 0.57901,-0.46599 3.612,-5.261 4.335,-6.032 0.722,-0.774 2.31201,0.464 2.74501,1.85601 0.432,1.392 4.47899,6.808 5.057,7.58099 0.578,0.773 1.15599,-0.311 1.733,-0.61899 C 99.025,85.20801 103.65,77.316 104.517,76.7 c 0.867,-0.621 1.01,0.464 1.3,1.08101 0.288,0.61899 4.191,6.344 5.78,8.973 0.025,0.04399 0.069,0.11499 0.069,0.11499 0,0 0.64701,13.20692 0.64701,13.20692 0,0 -49.07501,0.23967 -49.07501,0.23967 0,0 0.058,-18.04359 0.16,-23.76359 1.351,2.109 3.968,5.27201 4.418,5.872 0.57701,0.77101 1.445,0.153 1.877,-0.15799"
         style="fill:#21b5b0;fill-opacity:1;fill-rule:nonzero;stroke:none"
         id="path3081" /></g></g></svg>